<?xml version="1.0" encoding="utf-8"?>
<svg xmlns="http://www.w3.org/2000/svg">
<symbol id="group-76" viewBox="0 0 18 20">
<g clip-path="url(#clip0_924_69)">
<path d="M17.841 4.41324L9.12201 0.0302438C9.08404 0.0110031 9.04208 0.000976562 8.99951 0.000976562C8.95695 0.000976562 8.91498 0.0110031 8.87701 0.0302438L0.159014 4.41324C0.110678 4.43823 0.0702224 4.47613 0.0421507 4.52274C0.0140789 4.56935 -0.000508481 4.62284 1.35347e-05 4.67724V15.3242C-0.000508481 15.3787 0.0140789 15.4321 0.0421507 15.4787C0.0702224 15.5254 0.110678 15.5633 0.159014 15.5882L8.87801 19.9712C8.91598 19.9905 8.95795 20.0005 9.00051 20.0005C9.04308 20.0005 9.08505 19.9905 9.12301 19.9712L17.842 15.5872C17.8904 15.5623 17.9308 15.5244 17.9589 15.4777C17.9869 15.4311 18.0015 15.3777 18.001 15.3232V4.67724C18.0014 4.62273 17.9867 4.56917 17.9585 4.52255C17.9302 4.47593 17.8895 4.43809 17.841 4.41324V4.41324ZM9.00001 0.619244L17.068 4.67724L14.728 5.85324C14.7131 5.84128 14.697 5.83089 14.68 5.82224L6.66801 1.79224L9.00001 0.619244ZM6.03201 2.11924L14.092 6.17224L12.441 7.00124L4.38501 2.95524L6.03201 2.11924ZM14.281 6.73124V9.80124L12.739 10.5762V7.50724L14.281 6.73124ZM17.438 15.1402L9.28201 19.2402V9.24024L11.227 8.26224C11.2947 8.22616 11.346 8.16554 11.3703 8.09282C11.3947 8.0201 11.3903 7.94081 11.358 7.87124C11.343 7.83701 11.3212 7.80618 11.2938 7.78063C11.2665 7.75509 11.2343 7.73536 11.1992 7.72264C11.164 7.70992 11.1266 7.70448 11.0893 7.70665C11.052 7.70881 11.0155 7.71854 10.982 7.73524L9.00001 8.73524L8.22001 8.34324C8.18656 8.32654 8.15006 8.31681 8.11273 8.31465C8.0754 8.31248 8.03802 8.31792 8.00286 8.33064C7.9677 8.34336 7.93548 8.36309 7.90818 8.38863C7.88087 8.41418 7.85904 8.445 7.84401 8.47924C7.81173 8.54881 7.80732 8.6281 7.83169 8.70082C7.85605 8.77354 7.90734 8.83417 7.97501 8.87024L8.71801 9.24424V19.2442L0.562014 15.1442V5.14424L6.77301 8.26724C6.81085 8.28632 6.85264 8.29625 6.89501 8.29624C6.94866 8.29572 7.00102 8.27979 7.04587 8.25036C7.09072 8.22093 7.12618 8.17924 7.14801 8.13024C7.18029 8.06068 7.1847 7.98139 7.16034 7.90867C7.13598 7.83595 7.08469 7.77532 7.01701 7.73924L0.928013 4.67724L3.72201 3.27724L12.168 7.52124V7.52624V11.0422C12.1681 11.0912 12.1802 11.1394 12.2032 11.1827C12.2262 11.2259 12.2594 11.2628 12.3 11.2902C12.3399 11.3166 12.3861 11.3319 12.4339 11.3348C12.4816 11.3376 12.5293 11.3277 12.572 11.3062L14.672 10.2482C14.7204 10.2233 14.7608 10.1854 14.7889 10.1387C14.8169 10.0921 14.8315 10.0387 14.831 9.98424V6.44824L17.425 5.14824L17.438 15.1402Z" fill="#304DE5"/>
</g>
<defs>
<clipPath id="clip0_924_69">
<rect width="18" height="20" fill="white"/>
</clipPath>
</defs>

</symbol>
<symbol id="angle-down" viewBox="0 0 26 26">
<path fill-rule="evenodd" clip-rule="evenodd" d="M2.79603 8.19903C2.95008 8.05139 3.15538 7.96927 3.36875 7.96993C3.58212 7.9706 3.78691 8.05401 3.94003 8.2026L13.0323 17.101L22.1789 8.25955C22.3331 8.11215 22.5384 8.03018 22.7517 8.03085C22.9649 8.03152 23.1697 8.11476 23.3229 8.26313C23.3976 8.33531 23.4569 8.42183 23.4973 8.5175C23.5377 8.61317 23.5584 8.71601 23.5581 8.81986C23.5577 8.92371 23.5364 9.02643 23.4954 9.12184C23.4544 9.21726 23.3946 9.30341 23.3195 9.37512L13.5991 18.7708C13.445 18.9184 13.2397 19.0006 13.0264 18.9999C12.813 18.9992 12.6082 18.9158 12.4551 18.7672L2.79256 9.31102C2.71777 9.23891 2.65834 9.15242 2.61785 9.05674C2.57737 8.96106 2.55667 8.85817 2.55699 8.75428C2.55732 8.65039 2.57866 8.54764 2.61974 8.45222C2.66082 8.35679 2.72079 8.27067 2.79603 8.19903V8.19903Z"/>

</symbol>
<symbol id="arrow-left" viewBox="0 0 50 50">
<path d="M18.4863 12.5391L8.69141 22.793C8.10547 23.3594 7.8125 24.1309 7.8125 24.9805C7.8125 25.8301 8.10547 26.5918 8.69141 27.168L18.4863 37.4609C19.6484 38.6816 21.543 38.6816 22.7051 37.4609C23.8672 36.2402 23.8672 34.2676 22.7051 33.0469L18.0078 28.125H39.1992C40.8496 28.125 42.1875 26.7285 42.1875 25C42.1875 23.2715 40.8496 21.875 39.1992 21.875H18.0078L22.7148 16.9531C23.877 15.7324 23.877 13.7598 22.7148 12.5391C21.543 11.3184 19.6582 11.3184 18.4863 12.5391Z"/>

</symbol>
<symbol id="arrow-right" viewBox="0 0 50 50">
<path d="M31.5137 12.5391L41.3086 22.793C41.8945 23.3594 42.1875 24.1309 42.1875 24.9805C42.1875 25.8301 41.8945 26.5918 41.3086 27.168L31.5137 37.4609C30.3516 38.6816 28.457 38.6816 27.2949 37.4609C26.1328 36.2402 26.1328 34.2676 27.2949 33.0469L32.002 28.125H10.8105C9.15039 28.125 7.8125 26.7285 7.8125 25C7.8125 23.2715 9.15039 21.875 10.8008 21.875H31.9922L27.2852 16.9531C26.123 15.7324 26.123 13.7598 27.2852 12.5391C28.457 11.3184 30.3418 11.3184 31.5137 12.5391Z"/>

</symbol>
<symbol id="assortiment" viewBox="0 0 18 20">
<g clip-path="url(#clip0_924_72)">
<path d="M17.841 4.41324L9.12201 0.0302438C9.08404 0.0110031 9.04208 0.000976562 8.99951 0.000976562C8.95695 0.000976562 8.91498 0.0110031 8.87701 0.0302438L0.159014 4.41324C0.110678 4.43823 0.0702224 4.47613 0.0421507 4.52274C0.0140789 4.56935 -0.000508481 4.62284 1.35347e-05 4.67724V15.3242C-0.000508481 15.3787 0.0140789 15.4321 0.0421507 15.4787C0.0702224 15.5254 0.110678 15.5633 0.159014 15.5882L8.87801 19.9712C8.91598 19.9905 8.95795 20.0005 9.00051 20.0005C9.04308 20.0005 9.08505 19.9905 9.12301 19.9712L17.842 15.5872C17.8904 15.5623 17.9308 15.5244 17.9589 15.4777C17.9869 15.4311 18.0015 15.3777 18.001 15.3232V4.67724C18.0014 4.62273 17.9867 4.56917 17.9585 4.52255C17.9302 4.47593 17.8895 4.43809 17.841 4.41324V4.41324ZM9.00001 0.619244L17.068 4.67724L14.728 5.85324C14.7131 5.84128 14.697 5.83089 14.68 5.82224L6.66801 1.79224L9.00001 0.619244ZM6.03201 2.11924L14.092 6.17224L12.441 7.00124L4.38501 2.95524L6.03201 2.11924ZM14.281 6.73124V9.80124L12.739 10.5762V7.50724L14.281 6.73124ZM17.438 15.1402L9.28201 19.2402V9.24024L11.227 8.26224C11.2947 8.22616 11.346 8.16554 11.3703 8.09282C11.3947 8.0201 11.3903 7.94081 11.358 7.87124C11.343 7.83701 11.3212 7.80618 11.2938 7.78063C11.2665 7.75509 11.2343 7.73536 11.1992 7.72264C11.164 7.70992 11.1266 7.70448 11.0893 7.70665C11.052 7.70881 11.0155 7.71854 10.982 7.73524L9.00001 8.73524L8.22001 8.34324C8.18656 8.32654 8.15006 8.31681 8.11273 8.31465C8.0754 8.31248 8.03802 8.31792 8.00286 8.33064C7.9677 8.34336 7.93548 8.36309 7.90818 8.38863C7.88087 8.41418 7.85904 8.445 7.84401 8.47924C7.81173 8.54881 7.80732 8.6281 7.83169 8.70082C7.85605 8.77354 7.90734 8.83417 7.97501 8.87024L8.71801 9.24424V19.2442L0.562014 15.1442V5.14424L6.77301 8.26724C6.81085 8.28632 6.85264 8.29625 6.89501 8.29624C6.94866 8.29572 7.00102 8.27979 7.04587 8.25036C7.09072 8.22093 7.12618 8.17924 7.14801 8.13024C7.18029 8.06068 7.1847 7.98139 7.16034 7.90867C7.13598 7.83595 7.08469 7.77532 7.01701 7.73924L0.928013 4.67724L3.72201 3.27724L12.168 7.52124V7.52624V11.0422C12.1681 11.0912 12.1802 11.1394 12.2032 11.1827C12.2262 11.2259 12.2594 11.2628 12.3 11.2902C12.3399 11.3166 12.3861 11.3319 12.4339 11.3348C12.4816 11.3376 12.5293 11.3277 12.572 11.3062L14.672 10.2482C14.7204 10.2233 14.7608 10.1854 14.7889 10.1387C14.8169 10.0921 14.8315 10.0387 14.831 9.98424V6.44824L17.425 5.14824L17.438 15.1402Z"/>
</g>
<defs>
<clipPath id="clip0_924_72">
<rect width="18" height="20" fill="white"/>
</clipPath>
</defs>

</symbol>
<symbol id="cart" viewBox="0 0 24 24">
<path d="M8 23C9.10457 23 10 22.1046 10 21C10 19.8954 9.10457 19 8 19C6.89543 19 6 19.8954 6 21C6 22.1046 6.89543 23 8 23Z" stroke="white" stroke-width="2" stroke-linecap="round" stroke-linejoin="round"/>
<path d="M20 23C21.1046 23 22 22.1046 22 21C22 19.8954 21.1046 19 20 19C18.8954 19 18 19.8954 18 21C18 22.1046 18.8954 23 20 23Z" stroke="white" stroke-width="2" stroke-linecap="round" stroke-linejoin="round"/>
<path d="M5.67 6H23L21.32 14.39C21.2286 14.8504 20.9781 15.264 20.6125 15.5583C20.2468 15.8526 19.7893 16.009 19.32 16H8.75C8.26168 16.0041 7.78873 15.8295 7.42031 15.509C7.05189 15.1884 6.81347 14.7442 6.75 14.26L5.23 2.74C5.16697 2.25924 4.93142 1.81774 4.5672 1.49767C4.20298 1.17759 3.73488 1.00073 3.25 1H1" stroke="white" stroke-width="2" stroke-linecap="round" stroke-linejoin="round"/>

</symbol>
<symbol id="chevron-left" viewBox="0 0 26 26">
<g clip-path="url(#clip0_108_9)">
<path fill-rule="evenodd" clip-rule="evenodd" d="M17.8526 2.82049C17.9994 2.97528 18.0805 3.181 18.0788 3.39436C18.077 3.60772 17.9926 3.81209 17.8432 3.96445L8.89894 13.0116L17.6941 22.2028C17.8407 22.3577 17.9216 22.5634 17.9199 22.7767C17.9181 22.99 17.8339 23.1943 17.6847 23.3468C17.6122 23.4211 17.5253 23.48 17.4295 23.5199C17.3336 23.5598 17.2307 23.58 17.1268 23.5791C17.023 23.5783 16.9203 23.5564 16.8251 23.515C16.7299 23.4735 16.6441 23.4132 16.5728 23.3377L7.22632 13.57C7.07947 13.4152 6.99838 13.2094 7.00012 12.9961C7.00187 12.7827 7.08631 12.5784 7.23567 12.426L16.7406 2.8114C16.8131 2.73697 16.8999 2.67798 16.9958 2.63798C17.0917 2.59798 17.1946 2.5778 17.2985 2.57865C17.4024 2.5795 17.5051 2.60136 17.6003 2.64292C17.6955 2.68449 17.7813 2.74489 17.8526 2.82049V2.82049Z"/>
</g>
<defs>
<clipPath id="clip0_108_9">
<rect width="24" height="24" fill="white" transform="translate(24.9015 25.0978) rotate(-179.531)"/>
</clipPath>
</defs>

</symbol>
<symbol id="chevron-right" viewBox="0 0 24 24">
<g clip-path="url(#clip0_108_9)">
<path fill-rule="evenodd" clip-rule="evenodd" d="M7.23088 22.219C7.08276 22.0654 7 21.8604 7 21.647C7 21.4336 7.08276 21.2286 7.23088 21.075L16.1009 11.955L7.23088 2.83599C7.083 2.68229 7.00039 2.47729 7.00039 2.26399C7.00039 2.0507 7.083 1.8457 7.23088 1.69199C7.30283 1.6171 7.38916 1.55752 7.4847 1.51682C7.58025 1.47611 7.68303 1.45513 7.78688 1.45513C7.89073 1.45513 7.99351 1.47611 8.08905 1.51682C8.1846 1.55752 8.27093 1.6171 8.34288 1.69199L17.7689 11.383C17.917 11.5366 17.9998 11.7416 17.9998 11.955C17.9998 12.1684 17.917 12.3734 17.7689 12.527L8.34288 22.219C8.27101 22.294 8.18469 22.3537 8.08914 22.3945C7.99359 22.4353 7.89077 22.4563 7.78688 22.4563C7.68299 22.4563 7.58017 22.4353 7.48462 22.3945C7.38906 22.3537 7.30275 22.294 7.23088 22.219Z"/>
</g>
<defs>
<clipPath id="clip0_108_9">
<rect width="24" height="24" fill="white"/>
</clipPath>
</defs>

</symbol>
<symbol id="clock" viewBox="0 0 96 96">
<path d="M48 4C23.7 4 4 23.7 4 48C4 72.301 23.7 92 48 92C72.301 92 92 72.301 92 48C92 23.7 72.301 4 48 4ZM48 84C28.118 84 12 67.882 12 48C12 28.118 28.118 12 48 12C67.882 12 84 28.118 84 48C84 67.882 67.882 84 48 84Z"/>
<path d="M52 46.343V24C52 21.791 50.209 20 48 20C45.791 20 44 21.791 44 24V48C44 48.009 44.003 48.018 44.003 48.027C44.004 48.28 44.029 48.533 44.079 48.782C44.103 48.905 44.148 49.016 44.183 49.136C44.222 49.268 44.252 49.402 44.305 49.531C44.363 49.669 44.441 49.795 44.513 49.925C44.567 50.025 44.61 50.125 44.673 50.22C44.82 50.441 44.987 50.648 45.174 50.833L56.485 62.145C58.047 63.707 60.582 63.707 62.143 62.145C63.705 60.583 63.705 58.048 62.143 56.489L52 46.343Z"/>

</symbol>
<symbol id="customer-support" viewBox="0 0 17 17">
<g clip-path="url(#clip0_923_36)">
<path d="M0.0419239 1.72986L1.29892 3.92986C1.32032 3.96704 1.3491 3.99944 1.3835 4.02507C1.41789 4.05069 1.45718 4.069 1.49892 4.07886L2.67192 4.37186L6.68792 8.39386L7.13192 7.94986L3.04992 3.86386C3.00973 3.82341 2.95924 3.79471 2.90392 3.78086L1.77692 3.49886L0.706924 1.62386L1.62492 0.706858L3.49992 1.77886L3.78292 2.90586C3.79677 2.96118 3.82547 3.01166 3.86592 3.05186L7.95092 7.13686L8.39492 6.69286L4.37192 2.66986L4.07892 1.49786C4.06901 1.45613 4.05068 1.41687 4.02506 1.38248C3.99944 1.34809 3.96707 1.3193 3.92992 1.29786L1.72992 0.0438582C1.67016 0.00993419 1.60092 -0.00344796 1.53282 0.00576442C1.46472 0.0149768 1.40152 0.046275 1.35292 0.0948582L0.0959239 1.35186C0.0466293 1.40017 0.0146265 1.46338 0.00486529 1.53171C-0.00489589 1.60004 0.00812848 1.66968 0.0419239 1.72986Z"/>
<path d="M12.177 5.26187L5.26297 12.1759L4.81897 11.7319L11.733 4.81787L12.177 5.26187Z"/>
<path d="M4.98399 11.4879C4.95606 11.4416 4.91661 11.4032 4.86948 11.3766C4.82235 11.3499 4.76913 11.3359 4.71499 11.3359H2.82899C2.77485 11.3359 2.72164 11.3499 2.6745 11.3766C2.62737 11.4032 2.58792 11.4416 2.55999 11.4879L1.61899 13.0599C1.58954 13.1088 1.57397 13.1648 1.57397 13.2219C1.57397 13.279 1.58954 13.335 1.61899 13.3839L2.56199 14.9549C2.58992 15.0013 2.62937 15.0397 2.6765 15.0663C2.72364 15.0929 2.77686 15.1069 2.83099 15.1069H4.71899C4.77313 15.1069 4.82635 15.0929 4.87348 15.0663C4.92062 15.0397 4.96006 15.0013 4.98799 14.9549L5.93099 13.3839C5.96045 13.335 5.97601 13.279 5.97601 13.2219C5.97601 13.1648 5.96045 13.1088 5.93099 13.0599L4.98399 11.4879ZM4.53699 14.4779H3.00699L2.25299 13.2209L3.00699 11.9639H4.53699L5.29099 13.2209L4.53699 14.4779Z"/>
<path d="M13.595 6.79985C14.1116 6.80153 14.6218 6.685 15.0865 6.45917C15.5512 6.23334 15.958 5.90419 16.2759 5.49692C16.5938 5.08966 16.8144 4.61506 16.9206 4.10945C17.0269 3.60385 17.016 3.08063 16.889 2.57985C16.8769 2.53116 16.8522 2.48654 16.8172 2.45057C16.7822 2.41459 16.7384 2.38856 16.69 2.37513C16.6417 2.3617 16.5907 2.36135 16.5422 2.37413C16.4937 2.38691 16.4494 2.41235 16.414 2.44785L14.651 4.20785L13.251 3.74185L12.785 2.34185L14.549 0.57985C14.5858 0.544485 14.6124 0.499818 14.6259 0.450582C14.6394 0.401345 14.6393 0.349374 14.6257 0.300174C14.612 0.250973 14.5854 0.206377 14.5484 0.171111C14.5115 0.135844 14.4657 0.111221 14.416 0.0998497C13.9147 -0.0271403 13.391 -0.0377071 12.8851 0.0689587C12.3791 0.175625 11.9043 0.396693 11.4969 0.715226C11.0896 1.03376 10.7606 1.44131 10.5351 1.90664C10.3096 2.37198 10.1936 2.88276 10.196 3.39985C10.1966 3.62294 10.2198 3.84539 10.265 4.06385L4.06498 10.2638C3.8465 10.2187 3.62406 10.1956 3.40098 10.1948C2.72852 10.1948 2.07117 10.3943 1.51204 10.7679C0.952912 11.1414 0.517126 11.6725 0.259788 12.2937C0.00244975 12.915 -0.0648816 13.5986 0.0663081 14.2582C0.197498 14.9177 0.521316 15.5235 0.996815 15.999C1.47231 16.4745 2.07814 16.7983 2.73767 16.9295C3.39721 17.0607 4.08083 16.9934 4.7021 16.736C5.32337 16.4787 5.85438 16.0429 6.22797 15.4838C6.60157 14.9247 6.80098 14.2673 6.80098 13.5948C6.79861 13.3716 6.77382 13.1491 6.72698 12.9308L8.21198 11.4458L8.86098 12.0948C8.91404 12.1479 8.98598 12.1776 9.06098 12.1776C9.13598 12.1776 9.20791 12.1479 9.26098 12.0948L9.40298 11.9528C9.46313 11.8962 9.54297 11.8652 9.62558 11.8664C9.70818 11.8676 9.78708 11.9009 9.84557 11.9593C9.90405 12.0176 9.93753 12.0965 9.93892 12.1791C9.9403 12.2617 9.90948 12.3416 9.85298 12.4018V12.4018L9.71098 12.5438C9.65797 12.5969 9.6282 12.6688 9.6282 12.7438C9.6282 12.8189 9.65797 12.8908 9.71098 12.9438L13.089 16.3218C13.2991 16.5403 13.5505 16.7147 13.8287 16.8351C14.1068 16.9554 14.4061 17.0193 14.7092 17.0229C15.0122 17.0265 15.313 16.9698 15.5939 16.8562C15.8749 16.7425 16.1304 16.5741 16.3457 16.3608C16.5609 16.1474 16.7316 15.8934 16.8478 15.6135C16.964 15.3336 17.0234 15.0333 17.0225 14.7303C17.0216 14.4272 16.9604 14.1273 16.8426 13.8481C16.7247 13.5689 16.5525 13.3159 16.336 13.1038L16.321 13.0888L12.945 9.71285C12.8919 9.65984 12.82 9.63007 12.745 9.63007C12.67 9.63007 12.598 9.65984 12.545 9.71285L12.403 9.85485C12.3428 9.91148 12.263 9.94248 12.1804 9.94128C12.0978 9.94008 12.0189 9.90678 11.9604 9.84842C11.9019 9.79007 11.8684 9.71124 11.867 9.62864C11.8657 9.54603 11.8965 9.46613 11.953 9.40585V9.40585L12.095 9.26385C12.148 9.21079 12.1778 9.13885 12.1778 9.06385C12.1778 8.98885 12.148 8.91691 12.095 8.86385L11.446 8.21485L12.927 6.72885C13.1467 6.77495 13.3705 6.79874 13.595 6.79985V6.79985ZM14.708 16.4289C14.503 16.4282 14.2998 16.391 14.108 16.3188L16.317 14.0998C16.4149 14.3599 16.4482 14.6399 16.4141 14.9157C16.38 15.1914 16.2794 15.4548 16.1211 15.6832C15.9628 15.9116 15.7514 16.0981 15.505 16.2267C15.2587 16.3554 14.9849 16.4224 14.707 16.4219L14.708 16.4289ZM11.499 9.06585C11.358 9.23544 11.2854 9.45161 11.2956 9.67193C11.3058 9.89225 11.398 10.1008 11.5541 10.2566C11.7102 10.4125 11.9189 10.5043 12.1392 10.5142C12.3596 10.524 12.5756 10.4511 12.745 10.3098L15.927 13.4908C15.961 13.5258 15.994 13.5618 16.027 13.5988L13.606 16.0198C13.569 15.9888 13.532 15.9568 13.498 15.9198L10.317 12.7388C10.4585 12.5688 10.5311 12.3518 10.5204 12.1308C10.5097 11.9097 10.4165 11.7008 10.2592 11.5451C10.1019 11.3895 9.89202 11.2985 9.67091 11.2901C9.4498 11.2817 9.23359 11.3566 9.06498 11.4998L8.61198 11.0468L11.046 8.61685L11.499 9.06585ZM12.643 6.21785L6.21798 12.6408C6.18336 12.6754 6.15827 12.7184 6.14513 12.7655C6.13199 12.8126 6.13125 12.8623 6.14298 12.9098C6.29691 13.5151 6.24784 14.1542 6.00329 14.7289C5.75874 15.3036 5.33225 15.7821 4.78936 16.0908C4.24646 16.3996 3.6172 16.5215 2.99828 16.4379C2.37935 16.3543 1.805 16.0698 1.36348 15.628C0.921968 15.1863 0.637717 14.6118 0.554411 13.9928C0.471104 13.3739 0.593351 12.7447 0.902367 12.2019C1.21138 11.6592 1.69007 11.2329 2.26487 10.9887C2.83967 10.7444 3.47877 10.6956 4.08398 10.8498C4.13149 10.8614 4.18116 10.8605 4.22825 10.8474C4.27535 10.8343 4.31829 10.8093 4.35298 10.7748L10.776 4.35185C10.8105 4.31722 10.8355 4.27425 10.8484 4.2271C10.8614 4.17996 10.8619 4.13026 10.85 4.08285C10.7398 3.6523 10.7331 3.20179 10.8302 2.76812C10.9274 2.33446 11.1258 1.92992 11.4092 1.58756C11.6925 1.24519 12.0529 0.974707 12.4607 0.798182C12.8686 0.621658 13.3124 0.544102 13.756 0.57185L12.262 2.06585C12.2246 2.10298 12.1984 2.1498 12.1862 2.20103C12.174 2.25226 12.1764 2.30588 12.193 2.35585L12.759 4.05585C12.7729 4.09753 12.7963 4.13541 12.8273 4.16648C12.8584 4.19755 12.8963 4.22096 12.938 4.23485L14.638 4.80085C14.6879 4.8176 14.7414 4.8201 14.7926 4.80809C14.8439 4.79608 14.8907 4.77002 14.928 4.73285L16.422 3.23885C16.422 3.29285 16.427 3.34685 16.427 3.39985C16.4291 3.83063 16.3325 4.25618 16.1445 4.64377C15.9565 5.03137 15.6821 5.37071 15.3425 5.6357C15.0028 5.90069 14.6069 6.08429 14.1853 6.17238C13.7636 6.26047 13.3273 6.25071 12.91 6.14385C12.8626 6.1319 12.8129 6.13243 12.7657 6.1454C12.7186 6.15837 12.6756 6.18333 12.641 6.21785V6.21785H12.643Z"/>
<path d="M14.3869 13.9418L13.9429 14.3858L10.7999 11.2428L11.2439 10.7988L14.3869 13.9418Z"/>
</g>
<defs>
<clipPath id="clip0_923_36">
<rect width="17" height="17" fill="white"/>
</clipPath>
</defs>

</symbol>
<symbol id="email" viewBox="0 0 512 512">
<path d="M67.0001 148.7C78.0001 154.5 230.8 237.8 236.5 240.8C242.2 243.8 248 245.2 257 245.2C266 245.2 271.8 243.8 277.5 240.8C283.2 237.8 436 154.5 447 148.7C451.1 146.6 458 142.8 459.5 138.5C462.1 130.9 459.3 128 448.2 128H257H65.8001C54.7001 128 51.9001 131 54.5001 138.5C56.0001 142.9 62.9001 146.6 67.0001 148.7Z"/>
<path d="M455.7 153.2C447.5 157.4 373.9 209.8 325.2 241.3L407.4 333.8C409.4 335.8 410.3 338.2 409.2 339.4C408 340.5 405.4 339.9 403.3 338L304.7 254.8C289.8 264.4 279.3 271 277.5 272C269.8 275.9 264.4 276.4 257 276.4C249.6 276.4 244.2 275.9 236.5 272C234.6 271 224.2 264.4 209.3 254.8L110.7 338C108.7 340 106 340.6 104.8 339.4C103.6 338.3 104.5 335.8 106.5 333.8L188.6 241.3C139.9 209.8 65.5 157.4 57.3 153.2C48.5 148.7 48 154 48 158.1C48 162.2 48 363.1 48 363.1C48 372.4 61.7 384 71.5 384H257H442.5C452.3 384 464 372.3 464 363.1C464 363.1 464 162.1 464 158.1C464 153.9 464.6 148.7 455.7 153.2Z"/>

</symbol>
<symbol id="facebook" viewBox="0 0 13 22">
<path d="M10.006 3.89903H12.006V0.519026C11.038 0.418304 10.0653 0.368568 9.09202 0.370026C6.20102 0.370026 4.22402 2.13503 4.22402 5.37003V8.15103H0.960022V11.935H4.22402V21.63H8.13602V11.936H11.389L11.878 8.15203H8.13602V5.73803C8.13602 4.62203 8.43302 3.89903 10.006 3.89903Z"/>

</symbol>
<symbol id="instagram" viewBox="0 0 24 24">
<g clip-path="url(#clip0_903_2)">
<path d="M17 2H7C4.23858 2 2 4.23858 2 7V17C2 19.7614 4.23858 22 7 22H17C19.7614 22 22 19.7614 22 17V7C22 4.23858 19.7614 2 17 2Z" stroke="black" stroke-width="2" stroke-linecap="round" stroke-linejoin="round"/>
<path d="M16 11.37C16.1234 12.2022 15.9812 13.0522 15.5937 13.799C15.2062 14.5458 14.5931 15.1514 13.8416 15.5297C13.0901 15.9079 12.2384 16.0396 11.4077 15.9059C10.5771 15.7723 9.80971 15.3801 9.21479 14.7852C8.61987 14.1902 8.22768 13.4229 8.09402 12.5922C7.96035 11.7615 8.09202 10.9099 8.47028 10.1584C8.84854 9.40685 9.45414 8.79374 10.2009 8.40624C10.9477 8.01874 11.7977 7.87658 12.63 8C13.4789 8.12588 14.2648 8.52146 14.8716 9.1283C15.4785 9.73515 15.8741 10.5211 16 11.37Z" stroke="black" stroke-width="2" stroke-linecap="round" stroke-linejoin="round"/>
</g>
<defs>
<clipPath id="clip0_903_2">
<rect width="24" height="24" fill="white"/>
</clipPath>
</defs>

</symbol>
<symbol id="linkedin" viewBox="0 0 20 20">
<path d="M9.99996 7.95829C10.7641 7.17746 11.7591 6.66663 12.9166 6.66663C14.1322 6.66663 15.298 7.14951 16.1575 8.00905C17.0171 8.86859 17.5 10.0344 17.5 11.25V17.5H15.8333V11.25C15.8333 10.4764 15.526 9.73455 14.979 9.18756C14.432 8.64058 13.6902 8.33329 12.9166 8.33329C12.1431 8.33329 11.4012 8.64058 10.8542 9.18756C10.3073 9.73455 9.99996 10.4764 9.99996 11.25V17.5H8.33329V7.08329H9.99996V7.95829ZM4.16663 5.41663C3.83511 5.41663 3.51716 5.28493 3.28274 5.05051C3.04832 4.81609 2.91663 4.49815 2.91663 4.16663C2.91663 3.83511 3.04832 3.51716 3.28274 3.28274C3.51716 3.04832 3.83511 2.91663 4.16663 2.91663C4.49815 2.91663 4.81609 3.04832 5.05051 3.28274C5.28493 3.51716 5.41663 3.83511 5.41663 4.16663C5.41663 4.49815 5.28493 4.81609 5.05051 5.05051C4.81609 5.28493 4.49815 5.41663 4.16663 5.41663ZM3.33329 7.08329H4.99996V17.5H3.33329V7.08329Z"/>

</symbol>
<symbol id="location" viewBox="0 0 48 48"><path d="M24 4c-7.73 0-14 6.27-14 14 0 10.5 14 26 14 26s14-15.5 14-26c0-7.73-6.27-14-14-14zm0 19c-2.76 0-5-2.24-5-5s2.24-5 5-5 5 2.24 5 5-2.24 5-5 5z"/><path d="M0 0h48v48h-48z" fill="none"/>
</symbol>
<symbol id="loop-arrow" viewBox="0 0 20 18">
<g clip-path="url(#clip0_924_75)">
<path d="M17.708 18.0001H2.292C1.68984 18.0051 1.11028 17.7711 0.680561 17.3492C0.250838 16.9274 0.00607202 16.3522 0 15.7501V2.25008C0.00607202 1.64793 0.250838 1.0728 0.680561 0.650953C1.11028 0.229105 1.68984 -0.00498373 2.292 8.04897e-05H17.708C18.3102 -0.00498373 18.8897 0.229105 19.3194 0.650953C19.7492 1.0728 19.9939 1.64793 20 2.25008V15.7501C19.9939 16.3522 19.7492 16.9274 19.3194 17.3492C18.8897 17.7711 18.3102 18.0051 17.708 18.0001V18.0001ZM2.292 1.22708C2.01828 1.22495 1.75488 1.33144 1.55955 1.5232C1.36422 1.71497 1.2529 1.97637 1.25 2.25008V15.7501C1.2529 16.0238 1.36422 16.2852 1.55955 16.477C1.75488 16.6687 2.01828 16.7752 2.292 16.7731H17.708C17.9817 16.7752 18.2451 16.6687 18.4404 16.477C18.6358 16.2852 18.7471 16.0238 18.75 15.7501V2.25008C18.7471 1.97637 18.6358 1.71497 18.4404 1.5232C18.2451 1.33144 17.9817 1.22495 17.708 1.22708H2.292Z"/>
<path d="M19.375 4.1988H0.625021C0.455126 4.1842 0.296891 4.1064 0.181591 3.98076C0.0662916 3.85513 0.00231934 3.69082 0.00231934 3.5203C0.00231934 3.34978 0.0662916 3.18546 0.181591 3.05983C0.296891 2.9342 0.455126 2.85639 0.625021 2.8418H19.375C19.5449 2.85639 19.7032 2.9342 19.8185 3.05983C19.9338 3.18546 19.9977 3.34978 19.9977 3.5203C19.9977 3.69082 19.9338 3.85513 19.8185 3.98076C19.7032 4.1064 19.5449 4.1842 19.375 4.1988V4.1988Z"/>
<path d="M13.5729 9.98093H11.7639C11.584 9.98093 11.4114 9.90945 11.2842 9.7822C11.1569 9.65496 11.0854 9.48238 11.0854 9.30243C11.0854 9.12248 11.1569 8.9499 11.2842 8.82266C11.4114 8.69541 11.584 8.62393 11.7639 8.62393H12.8939V7.49393C12.8939 7.31398 12.9654 7.1414 13.0927 7.01416C13.2199 6.88691 13.3925 6.81543 13.5724 6.81543C13.7524 6.81543 13.925 6.88691 14.0522 7.01416C14.1795 7.1414 14.2509 7.31398 14.2509 7.49393V9.30293C14.2507 9.48267 14.1792 9.65496 14.0521 9.78206C13.925 9.90915 13.7527 9.98066 13.5729 9.98093V9.98093Z"/>
<path d="M6.42605 14.3911C6.24631 14.3908 6.07401 14.3193 5.94692 14.1922C5.81983 14.0651 5.74831 13.8928 5.74805 13.7131V11.9041C5.74831 11.7243 5.81983 11.552 5.94692 11.4249C6.07401 11.2979 6.24631 11.2263 6.42605 11.2261H8.23505C8.415 11.2261 8.58758 11.2976 8.71482 11.4248C8.84206 11.552 8.91355 11.7246 8.91355 11.9046C8.91355 12.0845 8.84206 12.2571 8.71482 12.3843C8.58758 12.5116 8.415 12.5831 8.23505 12.5831H7.10505V13.7131C7.10478 13.893 7.03313 14.0654 6.90582 14.1926C6.77851 14.3197 6.60596 14.3911 6.42605 14.3911Z"/>
<path d="M6.34704 10.4382C6.27934 10.4381 6.212 10.4283 6.14704 10.4092C5.97499 10.3566 5.83085 10.2379 5.74629 10.079C5.66173 9.92023 5.64366 9.73435 5.69604 9.56223C5.9578 8.70944 6.46631 7.9533 7.1574 7.38924C7.84849 6.82518 8.69118 6.47849 9.57912 6.3929C10.4671 6.30732 11.3605 6.48668 12.1466 6.90836C12.9327 7.33004 13.5762 7.97514 13.996 8.76223C14.0378 8.84102 14.0636 8.92727 14.0721 9.01605C14.0805 9.10482 14.0714 9.19439 14.0452 9.27963C14.019 9.36488 13.9763 9.44413 13.9194 9.51286C13.8626 9.5816 13.7928 9.63847 13.714 9.68023C13.6352 9.72199 13.549 9.74782 13.4602 9.75625C13.3715 9.76468 13.2819 9.75554 13.1966 9.72935C13.1114 9.70317 13.0321 9.66045 12.9634 9.60363C12.8947 9.54682 12.8378 9.47702 12.796 9.39823C12.5027 8.84718 12.0525 8.39544 11.5025 8.1001C10.9525 7.80475 10.3273 7.67905 9.7059 7.73887C9.08449 7.79869 8.49475 8.04135 8.01118 8.43619C7.52761 8.83103 7.17192 9.36033 6.98904 9.95723C6.94727 10.0954 6.86245 10.2165 6.74696 10.3031C6.63147 10.3896 6.49135 10.4369 6.34704 10.4382V10.4382Z"/>
<path d="M9.98196 14.8158C9.16313 14.8166 8.35959 14.594 7.65791 14.172C6.95622 13.75 6.38299 13.1445 5.99996 12.4208C5.9582 12.342 5.93237 12.2557 5.92394 12.167C5.91551 12.0782 5.92465 11.9886 5.95084 11.9034C5.97702 11.8181 6.01974 11.7389 6.07656 11.6701C6.13337 11.6014 6.20317 11.5445 6.28196 11.5028C6.36075 11.461 6.447 11.4352 6.53578 11.4268C6.62455 11.4183 6.71412 11.4275 6.79936 11.4537C6.88461 11.4798 6.96386 11.5226 7.03259 11.5794C7.10133 11.6362 7.1582 11.706 7.19996 11.7848C7.49354 12.3361 7.94401 12.7879 8.4944 13.0832C9.04478 13.3785 9.67037 13.5039 10.2921 13.4437C10.9137 13.3834 11.5036 13.1401 11.987 12.7447C12.4704 12.3492 12.8257 11.8192 13.008 11.2218C13.061 11.0494 13.1804 10.9051 13.3398 10.8207C13.4992 10.7363 13.6856 10.7187 13.858 10.7718C14.0303 10.8248 14.1746 10.9442 14.259 11.1036C14.3434 11.263 14.361 11.4494 14.308 11.6218C14.0259 12.5468 13.4537 13.3565 12.6759 13.9311C11.8981 14.5058 10.956 14.8149 9.98896 14.8128L9.98196 14.8158Z"/>
</g>
<defs>
<clipPath id="clip0_924_75">
<rect width="20" height="18" fill="white"/>
</clipPath>
</defs>

</symbol>
<symbol id="menu" viewBox="0 0 32 32">
<path d="M4 10H28C29.104 10 30 9.104 30 8C30 6.896 29.104 6 28 6H4C2.896 6 2 6.896 2 8C2 9.104 2.896 10 4 10ZM28 14H4C2.896 14 2 14.896 2 16C2 17.104 2.896 18 4 18H28C29.104 18 30 17.104 30 16C30 14.896 29.104 14 28 14ZM28 22H4C2.896 22 2 22.896 2 24C2 25.104 2.896 26 4 26H28C29.104 26 30 25.104 30 24C30 22.896 29.104 22 28 22Z"/>

</symbol>
<symbol id="phone" viewBox="0 0 48 48">
<path d="M13.25 21.59C16.13 27.25 20.76 31.88 26.43 34.76L30.83 30.35C31.38 29.8 32.17 29.64 32.86 29.86C35.1 30.6 37.51 31 40 31C41.11 31 42 31.89 42 33V40C42 41.11 41.11 42 40 42C21.22 42 6 26.78 6 8C6 6.89 6.9 6 8 6H15C16.11 6 17 6.89 17 8C17 10.49 17.4 12.9 18.14 15.14C18.36 15.83 18.2 16.62 17.65 17.17L13.25 21.59Z"/>

</symbol>
<symbol id="search" viewBox="0 0 24 24">
<path fill-rule="evenodd" clip-rule="evenodd" d="M15.361 15.361C15.4709 15.251 15.6014 15.1638 15.745 15.1042C15.8886 15.0447 16.0426 15.014 16.198 15.014C16.3535 15.014 16.5074 15.0447 16.6511 15.1042C16.7947 15.1638 16.9252 15.251 17.035 15.361L21.591 19.917C21.707 20.0255 21.8 20.1562 21.8645 20.3013C21.9289 20.4464 21.9636 20.603 21.9662 20.7618C21.9689 20.9206 21.9397 21.0783 21.8802 21.2255C21.8207 21.3728 21.7321 21.5065 21.6199 21.6189C21.5076 21.7312 21.3739 21.8198 21.2267 21.8794C21.0795 21.939 20.9218 21.9683 20.763 21.9657C20.6043 21.9631 20.4476 21.9286 20.3025 21.8643C20.1573 21.7999 20.0265 21.707 19.918 21.591L15.361 17.031C15.251 16.9212 15.1638 16.7907 15.1042 16.6471C15.0447 16.5034 15.014 16.3495 15.014 16.194C15.014 16.0386 15.0447 15.8846 15.1042 15.741C15.1638 15.5974 15.251 15.4669 15.361 15.357V15.361Z"/>
<path fill-rule="evenodd" clip-rule="evenodd" d="M10.692 17.2C11.9791 17.1998 13.2373 16.8179 14.3074 16.1027C15.3775 15.3875 16.2115 14.371 16.7039 13.1818C17.1963 11.9926 17.3251 10.6841 17.0738 9.42174C16.8226 8.15938 16.2027 6.99986 15.2925 6.0898C14.3823 5.17974 13.2227 4.56001 11.9603 4.30898C10.6979 4.05794 9.38939 4.18688 8.20027 4.67949C7.01115 5.17209 5.99479 6.00624 5.27973 7.07645C4.56467 8.14667 4.183 9.40488 4.183 10.692C4.183 11.5467 4.35137 12.3931 4.67849 13.1827C5.00561 13.9724 5.48508 14.6899 6.08951 15.2942C6.69394 15.8985 7.41149 16.3779 8.20119 16.7049C8.99089 17.0319 9.83728 17.2001 10.692 17.2ZM18.384 10.692C18.384 12.2133 17.9329 13.7005 17.0877 14.9654C16.2425 16.2304 15.0411 17.2163 13.6356 17.7985C12.2301 18.3807 10.6835 18.533 9.19137 18.2362C7.69927 17.9394 6.32868 17.2068 5.25294 16.1311C4.17719 15.0553 3.4446 13.6847 3.1478 12.1926C2.85101 10.7005 3.00333 9.15393 3.58552 7.7484C4.16771 6.34287 5.15361 5.14154 6.41856 4.29634C7.6835 3.45113 9.17067 3 10.692 3C12.732 3 14.6885 3.8104 16.1311 5.25293C17.5736 6.69546 18.384 8.65195 18.384 10.692Z"/>

</symbol>
<symbol id="shopping-cart" viewBox="0 0 24 24">
<path d="M8 23C9.10457 23 10 22.1046 10 21C10 19.8954 9.10457 19 8 19C6.89543 19 6 19.8954 6 21C6 22.1046 6.89543 23 8 23Z" stroke="black" stroke-width="2" stroke-linecap="round" stroke-linejoin="round"/>
<path d="M20 23C21.1046 23 22 22.1046 22 21C22 19.8954 21.1046 19 20 19C18.8954 19 18 19.8954 18 21C18 22.1046 18.8954 23 20 23Z" stroke="black" stroke-width="2" stroke-linecap="round" stroke-linejoin="round"/>
<path d="M5.67 6H23L21.32 14.39C21.2286 14.8504 20.9781 15.264 20.6125 15.5583C20.2468 15.8526 19.7893 16.009 19.32 16H8.75C8.26168 16.0041 7.78873 15.8295 7.42031 15.509C7.05189 15.1884 6.81347 14.7442 6.75 14.26L5.23 2.74C5.16697 2.25924 4.93142 1.81774 4.5672 1.49767C4.20298 1.17759 3.73488 1.00073 3.25 1H1" stroke="black" stroke-width="2" stroke-linecap="round" stroke-linejoin="round"/>

</symbol>
<symbol id="testimonial" viewBox="0 0 22 22">
<g clip-path="url(#clip0_924_47)">
<path d="M5.31995 3.07818H4.53995C4.65795 2.20718 5.13995 2.16418 5.36095 2.14318C5.46776 2.13345 5.56708 2.08416 5.63942 2.00498C5.71175 1.92579 5.75189 1.82243 5.75195 1.71518V0.429182C5.7519 0.37072 5.73994 0.312882 5.71678 0.259201C5.69363 0.20552 5.65977 0.157125 5.61728 0.116972C5.57478 0.0768202 5.52455 0.0457544 5.46965 0.0256737C5.41474 0.00559296 5.35632 -0.00308096 5.29795 0.000182044C3.93895 0.077182 2.31995 0.763182 2.31995 3.59518V5.83218C2.32021 6.01165 2.39162 6.1837 2.51853 6.3106C2.64543 6.43751 2.81747 6.50892 2.99694 6.50918H5.31995C5.49942 6.50892 5.67146 6.43751 5.79837 6.3106C5.92527 6.1837 5.99668 6.01165 5.99694 5.83218V3.75518C5.99668 3.57571 5.92527 3.40367 5.79837 3.27676C5.67146 3.14986 5.49942 3.07845 5.31995 3.07818V3.07818ZM5.13795 5.65018H3.17795V3.59518C3.17795 1.61818 4.05695 1.06618 4.88995 0.910182V1.36218C4.31495 1.53718 3.65195 2.05418 3.65195 3.50718C3.65195 3.56365 3.66307 3.61957 3.68468 3.67174C3.70629 3.72391 3.73796 3.77131 3.77789 3.81124C3.81782 3.85117 3.86522 3.88284 3.91739 3.90445C3.96956 3.92606 4.02548 3.93718 4.08195 3.93718H5.13695L5.13795 5.65018Z"/>
<path d="M9.71498 3.07818H8.93298C9.05098 2.20718 9.53298 2.16418 9.75398 2.14318C9.86079 2.13345 9.96012 2.08416 10.0325 2.00498C10.1048 1.92579 10.1449 1.82243 10.145 1.71518V0.429182C10.1449 0.37072 10.133 0.312882 10.1098 0.259201C10.0867 0.20552 10.0528 0.157125 10.0103 0.116972C9.96782 0.0768202 9.91759 0.0457544 9.86269 0.0256737C9.80778 0.00559296 9.74936 -0.00308096 9.69099 0.000182044C8.33299 0.076182 6.71399 0.762182 6.71399 3.60018V5.83218C6.71425 6.01165 6.78566 6.1837 6.91257 6.3106C7.03947 6.43751 7.21152 6.50892 7.39099 6.50918H9.71599C9.89546 6.50892 10.0675 6.43751 10.1944 6.3106C10.3213 6.1837 10.3927 6.01165 10.393 5.83218V3.75518C10.3927 3.57554 10.3212 3.40334 10.1941 3.27641C10.0669 3.14948 9.89462 3.07818 9.71498 3.07818ZM9.53299 5.65018H7.57298V3.59518C7.57298 1.61818 8.45199 1.06618 9.28499 0.910182V1.36218C8.70999 1.53718 8.04698 2.05418 8.04698 3.50718C8.04698 3.56365 8.05812 3.61957 8.07973 3.67174C8.10134 3.72391 8.133 3.77131 8.17293 3.81124C8.21286 3.85117 8.26027 3.88284 8.31244 3.90445C8.36461 3.92606 8.42052 3.93718 8.47699 3.93718H9.53198L9.53299 5.65018Z"/>
<path d="M12.249 3.47108C12.1785 3.40063 12.0857 3.35685 11.9866 3.34723C11.8874 3.3376 11.7879 3.36272 11.7052 3.4183C11.6225 3.47388 11.5616 3.55647 11.5331 3.65194C11.5045 3.74742 11.51 3.84984 11.5486 3.94172C11.5872 4.03361 11.6565 4.10924 11.7446 4.15568C11.8328 4.20212 11.9344 4.21648 12.032 4.19633C12.1296 4.17618 12.2171 4.12276 12.2797 4.04519C12.3423 3.96763 12.376 3.87074 12.375 3.77109C12.3736 3.65851 12.3284 3.5509 12.249 3.47108V3.47108Z"/>
<path d="M14.363 3.34523H13.822C13.7639 3.34242 13.7057 3.35145 13.6512 3.37177C13.5966 3.39209 13.5468 3.42327 13.5046 3.46343C13.4625 3.50359 13.4289 3.55189 13.406 3.6054C13.3831 3.65891 13.3713 3.71652 13.3713 3.77473C13.3713 3.83294 13.3831 3.89055 13.406 3.94406C13.4289 3.99757 13.4625 4.04587 13.5046 4.08603C13.5468 4.12618 13.5966 4.15737 13.6512 4.17769C13.7057 4.198 13.7639 4.20703 13.822 4.20423H14.363C16.0397 4.20286 17.6575 4.82305 18.9036 5.94494C20.1497 7.06684 20.9358 8.6108 21.1099 10.2785C21.284 11.9462 20.8338 13.6192 19.8462 14.9743C18.8586 16.3293 17.4039 17.2703 15.763 17.6152C15.6665 17.6356 15.5799 17.6886 15.5179 17.7653C15.4558 17.8419 15.4219 17.9376 15.422 18.0362V20.5362L12.774 17.8812C12.6944 17.8016 12.5866 17.7563 12.474 17.7552H7.637C6.45786 17.7542 5.29936 17.4457 4.27588 16.8602C3.2524 16.2747 2.39932 15.4323 1.80086 14.4164C1.20239 13.4004 0.879247 12.2459 0.863313 11.0668C0.84738 9.88781 1.13921 8.72501 1.71 7.69323C1.73979 7.64379 1.75932 7.58888 1.76743 7.53173C1.77554 7.47459 1.77206 7.4164 1.75721 7.36063C1.74235 7.30486 1.71642 7.25266 1.68097 7.20712C1.64551 7.16158 1.60125 7.12365 1.55082 7.09559C1.50039 7.06752 1.44483 7.04988 1.38744 7.04374C1.33005 7.0376 1.27202 7.04308 1.21679 7.05984C1.16157 7.0766 1.11028 7.10432 1.06599 7.14132C1.0217 7.17833 0.985317 7.22386 0.959 7.27523C0.314143 8.43795 -0.0160748 9.74884 0.000996027 11.0783C0.0180668 12.4078 0.381835 13.7098 1.05633 14.8555C1.73083 16.0013 2.6927 16.9512 3.84685 17.6113C5.00099 18.2714 6.30743 18.6188 7.637 18.6192H12.292L15.546 21.8732C15.6059 21.9331 15.6821 21.974 15.7652 21.9907C15.8482 22.0074 15.9343 21.9992 16.0127 21.9672C16.0911 21.9351 16.1583 21.8806 16.2058 21.8106C16.2534 21.7405 16.2792 21.6579 16.28 21.5732V18.3812C18.0783 17.9144 19.6449 16.8082 20.6863 15.2695C21.7277 13.7309 22.1726 11.8654 21.9377 10.0224C21.7028 8.17941 20.8041 6.4852 19.41 5.25704C18.0159 4.02887 16.2219 3.35096 14.364 3.35023L14.363 3.34523Z"/>
<path d="M16.289 7.62599H5.71297C5.60265 7.63131 5.49861 7.67888 5.42241 7.75885C5.34621 7.83881 5.30371 7.94502 5.30371 8.05548C5.30371 8.16593 5.34621 8.27216 5.42241 8.35212C5.49861 8.43209 5.60265 8.47966 5.71297 8.48498H16.289C16.3471 8.48779 16.4052 8.47876 16.4598 8.45845C16.5143 8.43813 16.5642 8.40695 16.6063 8.36679C16.6485 8.32663 16.682 8.27833 16.705 8.22482C16.7279 8.17131 16.7397 8.11369 16.7397 8.05548C16.7397 7.99726 16.7279 7.93966 16.705 7.88615C16.682 7.83264 16.6485 7.78434 16.6063 7.74418C16.5642 7.70402 16.5143 7.67284 16.4598 7.65252C16.4052 7.63221 16.3471 7.62318 16.289 7.62599V7.62599Z"/>
<path d="M16.2889 9.91798H5.71294C5.65479 9.91517 5.59668 9.92421 5.54213 9.94453C5.48758 9.96485 5.43772 9.99603 5.39558 10.0362C5.35343 10.0763 5.31988 10.1246 5.29695 10.1782C5.27403 10.2317 5.26221 10.2893 5.26221 10.3475C5.26221 10.4057 5.27403 10.4633 5.29695 10.5168C5.31988 10.5703 5.35343 10.6186 5.39558 10.6588C5.43772 10.6989 5.48758 10.7301 5.54213 10.7504C5.59668 10.7708 5.65479 10.7798 5.71294 10.777H16.2889C16.3471 10.7798 16.4052 10.7708 16.4598 10.7504C16.5143 10.7301 16.5642 10.6989 16.6063 10.6588C16.6484 10.6186 16.682 10.5703 16.7049 10.5168C16.7278 10.4633 16.7397 10.4057 16.7397 10.3475C16.7397 10.2893 16.7278 10.2317 16.7049 10.1782C16.682 10.1246 16.6484 10.0763 16.6063 10.0362C16.5642 9.99603 16.5143 9.96485 16.4598 9.94453C16.4052 9.92421 16.3471 9.91517 16.2889 9.91798V9.91798Z"/>
<path d="M16.2889 12.21H5.71294C5.65479 12.2072 5.59668 12.2162 5.54213 12.2365C5.48758 12.2568 5.43772 12.288 5.39558 12.3282C5.35343 12.3684 5.31988 12.4167 5.29695 12.4702C5.27403 12.5237 5.26221 12.5813 5.26221 12.6395C5.26221 12.6977 5.27403 12.7553 5.29695 12.8088C5.31988 12.8623 5.35343 12.9106 5.39558 12.9508C5.43772 12.9909 5.48758 13.0221 5.54213 13.0424C5.59668 13.0627 5.65479 13.0718 5.71294 13.069H16.2889C16.3471 13.0718 16.4052 13.0627 16.4598 13.0424C16.5143 13.0221 16.5642 12.9909 16.6063 12.9508C16.6484 12.9106 16.682 12.8623 16.7049 12.8088C16.7278 12.7553 16.7397 12.6977 16.7397 12.6395C16.7397 12.5813 16.7278 12.5237 16.7049 12.4702C16.682 12.4167 16.6484 12.3684 16.6063 12.3282C16.5642 12.288 16.5143 12.2568 16.4598 12.2365C16.4052 12.2162 16.3471 12.2072 16.2889 12.21Z"/>
<path d="M16.288 14.502H10.65C10.5397 14.5073 10.4356 14.5549 10.3594 14.6348C10.2832 14.7148 10.2407 14.821 10.2407 14.9315C10.2407 15.0419 10.2832 15.1481 10.3594 15.2281C10.4356 15.3081 10.5397 15.3556 10.65 15.361H16.287C16.3973 15.3556 16.5014 15.3081 16.5776 15.2281C16.6538 15.1481 16.6963 15.0419 16.6963 14.9315C16.6963 14.821 16.6538 14.7148 16.5776 14.6348C16.5014 14.5549 16.3973 14.5073 16.287 14.502H16.288Z"/>
<path d="M8.23401 14.501H8.22702C8.11669 14.5063 8.01264 14.5539 7.93645 14.6339C7.86025 14.7138 7.81775 14.82 7.81775 14.9305C7.81775 15.0409 7.86025 15.1471 7.93645 15.2271C8.01264 15.3071 8.11669 15.3547 8.22702 15.36H8.23401C8.34433 15.3547 8.44838 15.3071 8.52458 15.2271C8.60078 15.1471 8.64328 15.0409 8.64328 14.9305C8.64328 14.82 8.60078 14.7138 8.52458 14.6339C8.44838 14.5539 8.34433 14.5063 8.23401 14.501V14.501Z"/>
</g>
<defs>
<clipPath id="clip0_924_47">
<rect width="22" height="22" fill="white"/>
</clipPath>
</defs>

</symbol>
<symbol id="user" viewBox="0 0 24 24">
<path d="M20 21V19C20 17.9391 19.5786 16.9217 18.8284 16.1716C18.0783 15.4214 17.0609 15 16 15H8C6.93913 15 5.92172 15.4214 5.17157 16.1716C4.42143 16.9217 4 17.9391 4 19V21" stroke="white" stroke-width="2" stroke-linecap="round" stroke-linejoin="round"/>
<path d="M12 11C14.2091 11 16 9.20914 16 7C16 4.79086 14.2091 3 12 3C9.79086 3 8 4.79086 8 7C8 9.20914 9.79086 11 12 11Z" stroke="white" stroke-width="2" stroke-linecap="round" stroke-linejoin="round"/>

</symbol>
<symbol id="v-logo" viewBox="0 0 27 8">
<g clip-path="url(#clip0_924_43)">
<path d="M23.825 1.62613C23.412 2.77513 23.051 3.94312 22.571 5.06812C22.4787 5.24886 22.3472 5.40674 22.1862 5.53026C22.0251 5.65377 21.8385 5.73982 21.64 5.78213C21.379 5.80613 20.94 5.38212 20.8 5.08212C20.447 4.28212 20.23 3.42713 19.94 2.60013C19.8016 2.0431 19.4752 1.55092 19.0159 1.20675C18.5565 0.862575 17.9925 0.687512 17.419 0.711127C16.8453 0.688318 16.2809 0.861732 15.819 1.20277C15.357 1.54381 15.0252 2.03211 14.878 2.58713C14.573 3.46513 14.328 4.36312 13.969 5.22112C13.8847 5.36658 13.7715 5.49319 13.6363 5.59312C13.5011 5.69306 13.3468 5.76419 13.183 5.80212C12.966 5.84912 12.618 5.62313 12.421 5.43613C12.2804 5.2424 12.1851 5.01959 12.142 4.78412C11.8833 3.89174 11.5734 3.01496 11.214 2.15813C11.0439 1.80637 10.7951 1.49844 10.487 1.25812V1.25812L10.472 1.24812C10.4219 1.21297 10.3691 1.18187 10.314 1.15513C10.1979 1.08616 10.0717 1.03588 9.94003 1.00613C9.94003 1.00613 8.84001 1.27413 8.64001 2.18113C8.95578 2.19963 9.25485 2.32908 9.48447 2.54662C9.71409 2.76417 9.8595 3.05582 9.89502 3.37012C10.107 4.16112 10.408 4.93412 10.695 5.70712C10.8654 6.21 11.1894 6.64671 11.6213 6.95566C12.0531 7.2646 12.571 7.43021 13.102 7.42912C13.6476 7.44892 14.185 7.29213 14.6343 6.98207C15.0836 6.672 15.4209 6.22522 15.596 5.70813C15.915 4.83413 16.147 3.93012 16.524 3.07912C16.67 2.74812 17.104 2.31912 17.414 2.31512C17.724 2.31112 18.152 2.74712 18.295 3.07612C18.677 3.95212 18.913 4.88212 19.246 5.77612C19.4261 6.26233 19.7513 6.68141 20.1776 6.97656C20.6038 7.27171 21.1106 7.42866 21.629 7.42612C22.1627 7.44205 22.6884 7.29407 23.1354 7.0021C23.5824 6.71013 23.9292 6.2882 24.129 5.79313C24.353 5.22413 24.529 4.63912 24.735 4.06312C25.152 2.89312 25.575 1.72412 26.001 0.540122C24.302 0.310122 24.299 0.309128 23.825 1.62613Z" stroke="black"/>
<path d="M9.54599 0.8838C8.93722 0.663948 8.2669 0.688768 7.67606 0.953044C7.08521 1.21732 6.6199 1.70045 6.37799 2.3008C6.04199 3.1708 5.818 4.0778 5.435 4.9288C5.3457 5.12841 5.21718 5.30803 5.05707 5.45697C4.89696 5.60592 4.70853 5.72115 4.50299 5.7958C3.85299 5.9428 3.65698 5.3958 3.48898 4.9238C3.09598 3.8238 2.68 2.7238 2.271 1.6238C1.804 0.369797 1.80298 0.369796 0.302979 0.459796C0.200353 0.484663 0.100012 0.51812 0.00299072 0.559802C0.738991 2.4598 1.40299 4.3878 2.24799 6.2538C2.48562 6.67371 2.84788 7.00936 3.28467 7.21432C3.72145 7.41928 4.21115 7.48339 4.68597 7.3978C5.15951 7.39759 5.62271 7.25926 6.0188 6.99976C6.41489 6.74026 6.72669 6.37085 6.91599 5.9368C7.25999 5.0988 7.516 4.2368 7.823 3.3818C8.162 2.4458 8.37299 1.4368 9.54599 0.8838Z"/>
</g>
<defs>
<clipPath id="clip0_924_43">
<rect width="26.68" height="7.923" fill="white"/>
</clipPath>
</defs>

</symbol>
<symbol id="youtube" viewBox="0 0 24 24">
<path d="M22.63 9.58803C22.6798 8.14732 22.3647 6.71739 21.714 5.43103C21.2738 4.90445 20.6631 4.54854 19.988 4.42503C17.1876 4.17093 14.3755 4.06678 11.564 4.11303C8.76264 4.06402 5.96068 4.16416 3.16998 4.41303C2.6184 4.51356 2.10798 4.77242 1.70098 5.15803C0.787983 5.99503 0.687983 7.42403 0.587983 8.63203C0.441945 10.8036 0.441945 12.9825 0.587983 15.154C0.616462 15.8338 0.717026 16.5085 0.887982 17.167C1.00941 17.6755 1.25508 18.1459 1.60298 18.536C2.01297 18.9422 2.53559 19.2157 3.10298 19.321C5.27283 19.5888 7.45917 19.6998 9.64498 19.653C13.168 19.703 16.257 19.653 19.911 19.371C20.4922 19.272 21.0294 18.9982 21.451 18.586C21.7327 18.3043 21.9432 17.9594 22.065 17.58C22.4248 16.4755 22.6015 15.3196 22.588 14.158C22.63 13.594 22.63 10.192 22.63 9.58803ZM9.28798 14.761V8.53103L15.246 11.661C13.572 12.587 11.368 13.634 9.28798 14.761Z"/>

</symbol></svg>