<svg viewBox="0 0 18 20" fill="none" xmlns="http://www.w3.org/2000/svg">
<g clip-path="url(#clip0_924_72)">
<path d="M17.841 4.41324L9.12201 0.0302438C9.08404 0.0110031 9.04208 0.000976562 8.99951 0.000976562C8.95695 0.000976562 8.91498 0.0110031 8.87701 0.0302438L0.159014 4.41324C0.110678 4.43823 0.0702224 4.47613 0.0421507 4.52274C0.0140789 4.56935 -0.000508481 4.62284 1.35347e-05 4.67724V15.3242C-0.000508481 15.3787 0.0140789 15.4321 0.0421507 15.4787C0.0702224 15.5254 0.110678 15.5633 0.159014 15.5882L8.87801 19.9712C8.91598 19.9905 8.95795 20.0005 9.00051 20.0005C9.04308 20.0005 9.08505 19.9905 9.12301 19.9712L17.842 15.5872C17.8904 15.5623 17.9308 15.5244 17.9589 15.4777C17.9869 15.4311 18.0015 15.3777 18.001 15.3232V4.67724C18.0014 4.62273 17.9867 4.56917 17.9585 4.52255C17.9302 4.47593 17.8895 4.43809 17.841 4.41324V4.41324ZM9.00001 0.619244L17.068 4.67724L14.728 5.85324C14.7131 5.84128 14.697 5.83089 14.68 5.82224L6.66801 1.79224L9.00001 0.619244ZM6.03201 2.11924L14.092 6.17224L12.441 7.00124L4.38501 2.95524L6.03201 2.11924ZM14.281 6.73124V9.80124L12.739 10.5762V7.50724L14.281 6.73124ZM17.438 15.1402L9.28201 19.2402V9.24024L11.227 8.26224C11.2947 8.22616 11.346 8.16554 11.3703 8.09282C11.3947 8.0201 11.3903 7.94081 11.358 7.87124C11.343 7.83701 11.3212 7.80618 11.2938 7.78063C11.2665 7.75509 11.2343 7.73536 11.1992 7.72264C11.164 7.70992 11.1266 7.70448 11.0893 7.70665C11.052 7.70881 11.0155 7.71854 10.982 7.73524L9.00001 8.73524L8.22001 8.34324C8.18656 8.32654 8.15006 8.31681 8.11273 8.31465C8.0754 8.31248 8.03802 8.31792 8.00286 8.33064C7.9677 8.34336 7.93548 8.36309 7.90818 8.38863C7.88087 8.41418 7.85904 8.445 7.84401 8.47924C7.81173 8.54881 7.80732 8.6281 7.83169 8.70082C7.85605 8.77354 7.90734 8.83417 7.97501 8.87024L8.71801 9.24424V19.2442L0.562014 15.1442V5.14424L6.77301 8.26724C6.81085 8.28632 6.85264 8.29625 6.89501 8.29624C6.94866 8.29572 7.00102 8.27979 7.04587 8.25036C7.09072 8.22093 7.12618 8.17924 7.14801 8.13024C7.18029 8.06068 7.1847 7.98139 7.16034 7.90867C7.13598 7.83595 7.08469 7.77532 7.01701 7.73924L0.928013 4.67724L3.72201 3.27724L12.168 7.52124V7.52624V11.0422C12.1681 11.0912 12.1802 11.1394 12.2032 11.1827C12.2262 11.2259 12.2594 11.2628 12.3 11.2902C12.3399 11.3166 12.3861 11.3319 12.4339 11.3348C12.4816 11.3376 12.5293 11.3277 12.572 11.3062L14.672 10.2482C14.7204 10.2233 14.7608 10.1854 14.7889 10.1387C14.8169 10.0921 14.8315 10.0387 14.831 9.98424V6.44824L17.425 5.14824L17.438 15.1402Z"/>
</g>
<defs>
<clipPath id="clip0_924_72">
<rect width="18" height="20" fill="white"/>
</clipPath>
</defs>
</svg>
