<svg viewBox="0 0 24 24" fill="none" xmlns="http://www.w3.org/2000/svg">
<g clip-path="url(#clip0_108_9)">
<path fill-rule="evenodd" clip-rule="evenodd" d="M7.23088 22.219C7.08276 22.0654 7 21.8604 7 21.647C7 21.4336 7.08276 21.2286 7.23088 21.075L16.1009 11.955L7.23088 2.83599C7.083 2.68229 7.00039 2.47729 7.00039 2.26399C7.00039 2.0507 7.083 1.8457 7.23088 1.69199C7.30283 1.6171 7.38916 1.55752 7.4847 1.51682C7.58025 1.47611 7.68303 1.45513 7.78688 1.45513C7.89073 1.45513 7.99351 1.47611 8.08905 1.51682C8.1846 1.55752 8.27093 1.6171 8.34288 1.69199L17.7689 11.383C17.917 11.5366 17.9998 11.7416 17.9998 11.955C17.9998 12.1684 17.917 12.3734 17.7689 12.527L8.34288 22.219C8.27101 22.294 8.18469 22.3537 8.08914 22.3945C7.99359 22.4353 7.89077 22.4563 7.78688 22.4563C7.68299 22.4563 7.58017 22.4353 7.48462 22.3945C7.38906 22.3537 7.30275 22.294 7.23088 22.219Z"/>
</g>
<defs>
<clipPath id="clip0_108_9">
<rect width="24" height="24" fill="white"/>
</clipPath>
</defs>
</svg>
