<svg viewBox="0 0 26 26" fill="none" xmlns="http://www.w3.org/2000/svg">
<g clip-path="url(#clip0_108_9)">
<path fill-rule="evenodd" clip-rule="evenodd" d="M17.8526 2.82049C17.9994 2.97528 18.0805 3.181 18.0788 3.39436C18.077 3.60772 17.9926 3.81209 17.8432 3.96445L8.89894 13.0116L17.6941 22.2028C17.8407 22.3577 17.9216 22.5634 17.9199 22.7767C17.9181 22.99 17.8339 23.1943 17.6847 23.3468C17.6122 23.4211 17.5253 23.48 17.4295 23.5199C17.3336 23.5598 17.2307 23.58 17.1268 23.5791C17.023 23.5783 16.9203 23.5564 16.8251 23.515C16.7299 23.4735 16.6441 23.4132 16.5728 23.3377L7.22632 13.57C7.07947 13.4152 6.99838 13.2094 7.00012 12.9961C7.00187 12.7827 7.08631 12.5784 7.23567 12.426L16.7406 2.8114C16.8131 2.73697 16.8999 2.67798 16.9958 2.63798C17.0917 2.59798 17.1946 2.5778 17.2985 2.57865C17.4024 2.5795 17.5051 2.60136 17.6003 2.64292C17.6955 2.68449 17.7813 2.74489 17.8526 2.82049V2.82049Z"/>
</g>
<defs>
<clipPath id="clip0_108_9">
<rect width="24" height="24" fill="white" transform="translate(24.9015 25.0978) rotate(-179.531)"/>
</clipPath>
</defs>
</svg>
