<svg viewBox="0 0 17 17" fill="none" xmlns="http://www.w3.org/2000/svg">
<g clip-path="url(#clip0_923_36)">
<path d="M0.0419239 1.72986L1.29892 3.92986C1.32032 3.96704 1.3491 3.99944 1.3835 4.02507C1.41789 4.05069 1.45718 4.069 1.49892 4.07886L2.67192 4.37186L6.68792 8.39386L7.13192 7.94986L3.04992 3.86386C3.00973 3.82341 2.95924 3.79471 2.90392 3.78086L1.77692 3.49886L0.706924 1.62386L1.62492 0.706858L3.49992 1.77886L3.78292 2.90586C3.79677 2.96118 3.82547 3.01166 3.86592 3.05186L7.95092 7.13686L8.39492 6.69286L4.37192 2.66986L4.07892 1.49786C4.06901 1.45613 4.05068 1.41687 4.02506 1.38248C3.99944 1.34809 3.96707 1.3193 3.92992 1.29786L1.72992 0.0438582C1.67016 0.00993419 1.60092 -0.00344796 1.53282 0.00576442C1.46472 0.0149768 1.40152 0.046275 1.35292 0.0948582L0.0959239 1.35186C0.0466293 1.40017 0.0146265 1.46338 0.00486529 1.53171C-0.00489589 1.60004 0.00812848 1.66968 0.0419239 1.72986Z"/>
<path d="M12.177 5.26187L5.26297 12.1759L4.81897 11.7319L11.733 4.81787L12.177 5.26187Z"/>
<path d="M4.98399 11.4879C4.95606 11.4416 4.91661 11.4032 4.86948 11.3766C4.82235 11.3499 4.76913 11.3359 4.71499 11.3359H2.82899C2.77485 11.3359 2.72164 11.3499 2.6745 11.3766C2.62737 11.4032 2.58792 11.4416 2.55999 11.4879L1.61899 13.0599C1.58954 13.1088 1.57397 13.1648 1.57397 13.2219C1.57397 13.279 1.58954 13.335 1.61899 13.3839L2.56199 14.9549C2.58992 15.0013 2.62937 15.0397 2.6765 15.0663C2.72364 15.0929 2.77686 15.1069 2.83099 15.1069H4.71899C4.77313 15.1069 4.82635 15.0929 4.87348 15.0663C4.92062 15.0397 4.96006 15.0013 4.98799 14.9549L5.93099 13.3839C5.96045 13.335 5.97601 13.279 5.97601 13.2219C5.97601 13.1648 5.96045 13.1088 5.93099 13.0599L4.98399 11.4879ZM4.53699 14.4779H3.00699L2.25299 13.2209L3.00699 11.9639H4.53699L5.29099 13.2209L4.53699 14.4779Z"/>
<path d="M13.595 6.79985C14.1116 6.80153 14.6218 6.685 15.0865 6.45917C15.5512 6.23334 15.958 5.90419 16.2759 5.49692C16.5938 5.08966 16.8144 4.61506 16.9206 4.10945C17.0269 3.60385 17.016 3.08063 16.889 2.57985C16.8769 2.53116 16.8522 2.48654 16.8172 2.45057C16.7822 2.41459 16.7384 2.38856 16.69 2.37513C16.6417 2.3617 16.5907 2.36135 16.5422 2.37413C16.4937 2.38691 16.4494 2.41235 16.414 2.44785L14.651 4.20785L13.251 3.74185L12.785 2.34185L14.549 0.57985C14.5858 0.544485 14.6124 0.499818 14.6259 0.450582C14.6394 0.401345 14.6393 0.349374 14.6257 0.300174C14.612 0.250973 14.5854 0.206377 14.5484 0.171111C14.5115 0.135844 14.4657 0.111221 14.416 0.0998497C13.9147 -0.0271403 13.391 -0.0377071 12.8851 0.0689587C12.3791 0.175625 11.9043 0.396693 11.4969 0.715226C11.0896 1.03376 10.7606 1.44131 10.5351 1.90664C10.3096 2.37198 10.1936 2.88276 10.196 3.39985C10.1966 3.62294 10.2198 3.84539 10.265 4.06385L4.06498 10.2638C3.8465 10.2187 3.62406 10.1956 3.40098 10.1948C2.72852 10.1948 2.07117 10.3943 1.51204 10.7679C0.952912 11.1414 0.517126 11.6725 0.259788 12.2937C0.00244975 12.915 -0.0648816 13.5986 0.0663081 14.2582C0.197498 14.9177 0.521316 15.5235 0.996815 15.999C1.47231 16.4745 2.07814 16.7983 2.73767 16.9295C3.39721 17.0607 4.08083 16.9934 4.7021 16.736C5.32337 16.4787 5.85438 16.0429 6.22797 15.4838C6.60157 14.9247 6.80098 14.2673 6.80098 13.5948C6.79861 13.3716 6.77382 13.1491 6.72698 12.9308L8.21198 11.4458L8.86098 12.0948C8.91404 12.1479 8.98598 12.1776 9.06098 12.1776C9.13598 12.1776 9.20791 12.1479 9.26098 12.0948L9.40298 11.9528C9.46313 11.8962 9.54297 11.8652 9.62558 11.8664C9.70818 11.8676 9.78708 11.9009 9.84557 11.9593C9.90405 12.0176 9.93753 12.0965 9.93892 12.1791C9.9403 12.2617 9.90948 12.3416 9.85298 12.4018V12.4018L9.71098 12.5438C9.65797 12.5969 9.6282 12.6688 9.6282 12.7438C9.6282 12.8189 9.65797 12.8908 9.71098 12.9438L13.089 16.3218C13.2991 16.5403 13.5505 16.7147 13.8287 16.8351C14.1068 16.9554 14.4061 17.0193 14.7092 17.0229C15.0122 17.0265 15.313 16.9698 15.5939 16.8562C15.8749 16.7425 16.1304 16.5741 16.3457 16.3608C16.5609 16.1474 16.7316 15.8934 16.8478 15.6135C16.964 15.3336 17.0234 15.0333 17.0225 14.7303C17.0216 14.4272 16.9604 14.1273 16.8426 13.8481C16.7247 13.5689 16.5525 13.3159 16.336 13.1038L16.321 13.0888L12.945 9.71285C12.8919 9.65984 12.82 9.63007 12.745 9.63007C12.67 9.63007 12.598 9.65984 12.545 9.71285L12.403 9.85485C12.3428 9.91148 12.263 9.94248 12.1804 9.94128C12.0978 9.94008 12.0189 9.90678 11.9604 9.84842C11.9019 9.79007 11.8684 9.71124 11.867 9.62864C11.8657 9.54603 11.8965 9.46613 11.953 9.40585V9.40585L12.095 9.26385C12.148 9.21079 12.1778 9.13885 12.1778 9.06385C12.1778 8.98885 12.148 8.91691 12.095 8.86385L11.446 8.21485L12.927 6.72885C13.1467 6.77495 13.3705 6.79874 13.595 6.79985V6.79985ZM14.708 16.4289C14.503 16.4282 14.2998 16.391 14.108 16.3188L16.317 14.0998C16.4149 14.3599 16.4482 14.6399 16.4141 14.9157C16.38 15.1914 16.2794 15.4548 16.1211 15.6832C15.9628 15.9116 15.7514 16.0981 15.505 16.2267C15.2587 16.3554 14.9849 16.4224 14.707 16.4219L14.708 16.4289ZM11.499 9.06585C11.358 9.23544 11.2854 9.45161 11.2956 9.67193C11.3058 9.89225 11.398 10.1008 11.5541 10.2566C11.7102 10.4125 11.9189 10.5043 12.1392 10.5142C12.3596 10.524 12.5756 10.4511 12.745 10.3098L15.927 13.4908C15.961 13.5258 15.994 13.5618 16.027 13.5988L13.606 16.0198C13.569 15.9888 13.532 15.9568 13.498 15.9198L10.317 12.7388C10.4585 12.5688 10.5311 12.3518 10.5204 12.1308C10.5097 11.9097 10.4165 11.7008 10.2592 11.5451C10.1019 11.3895 9.89202 11.2985 9.67091 11.2901C9.4498 11.2817 9.23359 11.3566 9.06498 11.4998L8.61198 11.0468L11.046 8.61685L11.499 9.06585ZM12.643 6.21785L6.21798 12.6408C6.18336 12.6754 6.15827 12.7184 6.14513 12.7655C6.13199 12.8126 6.13125 12.8623 6.14298 12.9098C6.29691 13.5151 6.24784 14.1542 6.00329 14.7289C5.75874 15.3036 5.33225 15.7821 4.78936 16.0908C4.24646 16.3996 3.6172 16.5215 2.99828 16.4379C2.37935 16.3543 1.805 16.0698 1.36348 15.628C0.921968 15.1863 0.637717 14.6118 0.554411 13.9928C0.471104 13.3739 0.593351 12.7447 0.902367 12.2019C1.21138 11.6592 1.69007 11.2329 2.26487 10.9887C2.83967 10.7444 3.47877 10.6956 4.08398 10.8498C4.13149 10.8614 4.18116 10.8605 4.22825 10.8474C4.27535 10.8343 4.31829 10.8093 4.35298 10.7748L10.776 4.35185C10.8105 4.31722 10.8355 4.27425 10.8484 4.2271C10.8614 4.17996 10.8619 4.13026 10.85 4.08285C10.7398 3.6523 10.7331 3.20179 10.8302 2.76812C10.9274 2.33446 11.1258 1.92992 11.4092 1.58756C11.6925 1.24519 12.0529 0.974707 12.4607 0.798182C12.8686 0.621658 13.3124 0.544102 13.756 0.57185L12.262 2.06585C12.2246 2.10298 12.1984 2.1498 12.1862 2.20103C12.174 2.25226 12.1764 2.30588 12.193 2.35585L12.759 4.05585C12.7729 4.09753 12.7963 4.13541 12.8273 4.16648C12.8584 4.19755 12.8963 4.22096 12.938 4.23485L14.638 4.80085C14.6879 4.8176 14.7414 4.8201 14.7926 4.80809C14.8439 4.79608 14.8907 4.77002 14.928 4.73285L16.422 3.23885C16.422 3.29285 16.427 3.34685 16.427 3.39985C16.4291 3.83063 16.3325 4.25618 16.1445 4.64377C15.9565 5.03137 15.6821 5.37071 15.3425 5.6357C15.0028 5.90069 14.6069 6.08429 14.1853 6.17238C13.7636 6.26047 13.3273 6.25071 12.91 6.14385C12.8626 6.1319 12.8129 6.13243 12.7657 6.1454C12.7186 6.15837 12.6756 6.18333 12.641 6.21785V6.21785H12.643Z"/>
<path d="M14.3869 13.9418L13.9429 14.3858L10.7999 11.2428L11.2439 10.7988L14.3869 13.9418Z"/>
</g>
<defs>
<clipPath id="clip0_923_36">
<rect width="17" height="17" fill="white"/>
</clipPath>
</defs>
</svg>
