<svg width="512" height="512" viewBox="0 0 512 512" fill="none" xmlns="http://www.w3.org/2000/svg">
<path d="M67.0001 148.7C78.0001 154.5 230.8 237.8 236.5 240.8C242.2 243.8 248 245.2 257 245.2C266 245.2 271.8 243.8 277.5 240.8C283.2 237.8 436 154.5 447 148.7C451.1 146.6 458 142.8 459.5 138.5C462.1 130.9 459.3 128 448.2 128H257H65.8001C54.7001 128 51.9001 131 54.5001 138.5C56.0001 142.9 62.9001 146.6 67.0001 148.7Z"/>
<path d="M455.7 153.2C447.5 157.4 373.9 209.8 325.2 241.3L407.4 333.8C409.4 335.8 410.3 338.2 409.2 339.4C408 340.5 405.4 339.9 403.3 338L304.7 254.8C289.8 264.4 279.3 271 277.5 272C269.8 275.9 264.4 276.4 257 276.4C249.6 276.4 244.2 275.9 236.5 272C234.6 271 224.2 264.4 209.3 254.8L110.7 338C108.7 340 106 340.6 104.8 339.4C103.6 338.3 104.5 335.8 106.5 333.8L188.6 241.3C139.9 209.8 65.5 157.4 57.3 153.2C48.5 148.7 48 154 48 158.1C48 162.2 48 363.1 48 363.1C48 372.4 61.7 384 71.5 384H257H442.5C452.3 384 464 372.3 464 363.1C464 363.1 464 162.1 464 158.1C464 153.9 464.6 148.7 455.7 153.2Z"/>
</svg>
