<svg viewBox="0 0 20 20" fill="none" xmlns="http://www.w3.org/2000/svg">
<path d="M9.99996 7.95829C10.7641 7.17746 11.7591 6.66663 12.9166 6.66663C14.1322 6.66663 15.298 7.14951 16.1575 8.00905C17.0171 8.86859 17.5 10.0344 17.5 11.25V17.5H15.8333V11.25C15.8333 10.4764 15.526 9.73455 14.979 9.18756C14.432 8.64058 13.6902 8.33329 12.9166 8.33329C12.1431 8.33329 11.4012 8.64058 10.8542 9.18756C10.3073 9.73455 9.99996 10.4764 9.99996 11.25V17.5H8.33329V7.08329H9.99996V7.95829ZM4.16663 5.41663C3.83511 5.41663 3.51716 5.28493 3.28274 5.05051C3.04832 4.81609 2.91663 4.49815 2.91663 4.16663C2.91663 3.83511 3.04832 3.51716 3.28274 3.28274C3.51716 3.04832 3.83511 2.91663 4.16663 2.91663C4.49815 2.91663 4.81609 3.04832 5.05051 3.28274C5.28493 3.51716 5.41663 3.83511 5.41663 4.16663C5.41663 4.49815 5.28493 4.81609 5.05051 5.05051C4.81609 5.28493 4.49815 5.41663 4.16663 5.41663ZM3.33329 7.08329H4.99996V17.5H3.33329V7.08329Z"/>
</svg>
