<svg viewBox="0 0 20 18" fill="none" xmlns="http://www.w3.org/2000/svg">
<g clip-path="url(#clip0_924_75)">
<path d="M17.708 18.0001H2.292C1.68984 18.0051 1.11028 17.7711 0.680561 17.3492C0.250838 16.9274 0.00607202 16.3522 0 15.7501V2.25008C0.00607202 1.64793 0.250838 1.0728 0.680561 0.650953C1.11028 0.229105 1.68984 -0.00498373 2.292 8.04897e-05H17.708C18.3102 -0.00498373 18.8897 0.229105 19.3194 0.650953C19.7492 1.0728 19.9939 1.64793 20 2.25008V15.7501C19.9939 16.3522 19.7492 16.9274 19.3194 17.3492C18.8897 17.7711 18.3102 18.0051 17.708 18.0001V18.0001ZM2.292 1.22708C2.01828 1.22495 1.75488 1.33144 1.55955 1.5232C1.36422 1.71497 1.2529 1.97637 1.25 2.25008V15.7501C1.2529 16.0238 1.36422 16.2852 1.55955 16.477C1.75488 16.6687 2.01828 16.7752 2.292 16.7731H17.708C17.9817 16.7752 18.2451 16.6687 18.4404 16.477C18.6358 16.2852 18.7471 16.0238 18.75 15.7501V2.25008C18.7471 1.97637 18.6358 1.71497 18.4404 1.5232C18.2451 1.33144 17.9817 1.22495 17.708 1.22708H2.292Z"/>
<path d="M19.375 4.1988H0.625021C0.455126 4.1842 0.296891 4.1064 0.181591 3.98076C0.0662916 3.85513 0.00231934 3.69082 0.00231934 3.5203C0.00231934 3.34978 0.0662916 3.18546 0.181591 3.05983C0.296891 2.9342 0.455126 2.85639 0.625021 2.8418H19.375C19.5449 2.85639 19.7032 2.9342 19.8185 3.05983C19.9338 3.18546 19.9977 3.34978 19.9977 3.5203C19.9977 3.69082 19.9338 3.85513 19.8185 3.98076C19.7032 4.1064 19.5449 4.1842 19.375 4.1988V4.1988Z"/>
<path d="M13.5729 9.98093H11.7639C11.584 9.98093 11.4114 9.90945 11.2842 9.7822C11.1569 9.65496 11.0854 9.48238 11.0854 9.30243C11.0854 9.12248 11.1569 8.9499 11.2842 8.82266C11.4114 8.69541 11.584 8.62393 11.7639 8.62393H12.8939V7.49393C12.8939 7.31398 12.9654 7.1414 13.0927 7.01416C13.2199 6.88691 13.3925 6.81543 13.5724 6.81543C13.7524 6.81543 13.925 6.88691 14.0522 7.01416C14.1795 7.1414 14.2509 7.31398 14.2509 7.49393V9.30293C14.2507 9.48267 14.1792 9.65496 14.0521 9.78206C13.925 9.90915 13.7527 9.98066 13.5729 9.98093V9.98093Z"/>
<path d="M6.42605 14.3911C6.24631 14.3908 6.07401 14.3193 5.94692 14.1922C5.81983 14.0651 5.74831 13.8928 5.74805 13.7131V11.9041C5.74831 11.7243 5.81983 11.552 5.94692 11.4249C6.07401 11.2979 6.24631 11.2263 6.42605 11.2261H8.23505C8.415 11.2261 8.58758 11.2976 8.71482 11.4248C8.84206 11.552 8.91355 11.7246 8.91355 11.9046C8.91355 12.0845 8.84206 12.2571 8.71482 12.3843C8.58758 12.5116 8.415 12.5831 8.23505 12.5831H7.10505V13.7131C7.10478 13.893 7.03313 14.0654 6.90582 14.1926C6.77851 14.3197 6.60596 14.3911 6.42605 14.3911Z"/>
<path d="M6.34704 10.4382C6.27934 10.4381 6.212 10.4283 6.14704 10.4092C5.97499 10.3566 5.83085 10.2379 5.74629 10.079C5.66173 9.92023 5.64366 9.73435 5.69604 9.56223C5.9578 8.70944 6.46631 7.9533 7.1574 7.38924C7.84849 6.82518 8.69118 6.47849 9.57912 6.3929C10.4671 6.30732 11.3605 6.48668 12.1466 6.90836C12.9327 7.33004 13.5762 7.97514 13.996 8.76223C14.0378 8.84102 14.0636 8.92727 14.0721 9.01605C14.0805 9.10482 14.0714 9.19439 14.0452 9.27963C14.019 9.36488 13.9763 9.44413 13.9194 9.51286C13.8626 9.5816 13.7928 9.63847 13.714 9.68023C13.6352 9.72199 13.549 9.74782 13.4602 9.75625C13.3715 9.76468 13.2819 9.75554 13.1966 9.72935C13.1114 9.70317 13.0321 9.66045 12.9634 9.60363C12.8947 9.54682 12.8378 9.47702 12.796 9.39823C12.5027 8.84718 12.0525 8.39544 11.5025 8.1001C10.9525 7.80475 10.3273 7.67905 9.7059 7.73887C9.08449 7.79869 8.49475 8.04135 8.01118 8.43619C7.52761 8.83103 7.17192 9.36033 6.98904 9.95723C6.94727 10.0954 6.86245 10.2165 6.74696 10.3031C6.63147 10.3896 6.49135 10.4369 6.34704 10.4382V10.4382Z"/>
<path d="M9.98196 14.8158C9.16313 14.8166 8.35959 14.594 7.65791 14.172C6.95622 13.75 6.38299 13.1445 5.99996 12.4208C5.9582 12.342 5.93237 12.2557 5.92394 12.167C5.91551 12.0782 5.92465 11.9886 5.95084 11.9034C5.97702 11.8181 6.01974 11.7389 6.07656 11.6701C6.13337 11.6014 6.20317 11.5445 6.28196 11.5028C6.36075 11.461 6.447 11.4352 6.53578 11.4268C6.62455 11.4183 6.71412 11.4275 6.79936 11.4537C6.88461 11.4798 6.96386 11.5226 7.03259 11.5794C7.10133 11.6362 7.1582 11.706 7.19996 11.7848C7.49354 12.3361 7.94401 12.7879 8.4944 13.0832C9.04478 13.3785 9.67037 13.5039 10.2921 13.4437C10.9137 13.3834 11.5036 13.1401 11.987 12.7447C12.4704 12.3492 12.8257 11.8192 13.008 11.2218C13.061 11.0494 13.1804 10.9051 13.3398 10.8207C13.4992 10.7363 13.6856 10.7187 13.858 10.7718C14.0303 10.8248 14.1746 10.9442 14.259 11.1036C14.3434 11.263 14.361 11.4494 14.308 11.6218C14.0259 12.5468 13.4537 13.3565 12.6759 13.9311C11.8981 14.5058 10.956 14.8149 9.98896 14.8128L9.98196 14.8158Z"/>
</g>
<defs>
<clipPath id="clip0_924_75">
<rect width="20" height="18" fill="white"/>
</clipPath>
</defs>
</svg>
