<svg viewBox="0 0 24 24" fill="none" xmlns="http://www.w3.org/2000/svg">
<path fill-rule="evenodd" clip-rule="evenodd" d="M15.361 15.361C15.4709 15.251 15.6014 15.1638 15.745 15.1042C15.8886 15.0447 16.0426 15.014 16.198 15.014C16.3535 15.014 16.5074 15.0447 16.6511 15.1042C16.7947 15.1638 16.9252 15.251 17.035 15.361L21.591 19.917C21.707 20.0255 21.8 20.1562 21.8645 20.3013C21.9289 20.4464 21.9636 20.603 21.9662 20.7618C21.9689 20.9206 21.9397 21.0783 21.8802 21.2255C21.8207 21.3728 21.7321 21.5065 21.6199 21.6189C21.5076 21.7312 21.3739 21.8198 21.2267 21.8794C21.0795 21.939 20.9218 21.9683 20.763 21.9657C20.6043 21.9631 20.4476 21.9286 20.3025 21.8643C20.1573 21.7999 20.0265 21.707 19.918 21.591L15.361 17.031C15.251 16.9212 15.1638 16.7907 15.1042 16.6471C15.0447 16.5034 15.014 16.3495 15.014 16.194C15.014 16.0386 15.0447 15.8846 15.1042 15.741C15.1638 15.5974 15.251 15.4669 15.361 15.357V15.361Z"/>
<path fill-rule="evenodd" clip-rule="evenodd" d="M10.692 17.2C11.9791 17.1998 13.2373 16.8179 14.3074 16.1027C15.3775 15.3875 16.2115 14.371 16.7039 13.1818C17.1963 11.9926 17.3251 10.6841 17.0738 9.42174C16.8226 8.15938 16.2027 6.99986 15.2925 6.0898C14.3823 5.17974 13.2227 4.56001 11.9603 4.30898C10.6979 4.05794 9.38939 4.18688 8.20027 4.67949C7.01115 5.17209 5.99479 6.00624 5.27973 7.07645C4.56467 8.14667 4.183 9.40488 4.183 10.692C4.183 11.5467 4.35137 12.3931 4.67849 13.1827C5.00561 13.9724 5.48508 14.6899 6.08951 15.2942C6.69394 15.8985 7.41149 16.3779 8.20119 16.7049C8.99089 17.0319 9.83728 17.2001 10.692 17.2ZM18.384 10.692C18.384 12.2133 17.9329 13.7005 17.0877 14.9654C16.2425 16.2304 15.0411 17.2163 13.6356 17.7985C12.2301 18.3807 10.6835 18.533 9.19137 18.2362C7.69927 17.9394 6.32868 17.2068 5.25294 16.1311C4.17719 15.0553 3.4446 13.6847 3.1478 12.1926C2.85101 10.7005 3.00333 9.15393 3.58552 7.7484C4.16771 6.34287 5.15361 5.14154 6.41856 4.29634C7.6835 3.45113 9.17067 3 10.692 3C12.732 3 14.6885 3.8104 16.1311 5.25293C17.5736 6.69546 18.384 8.65195 18.384 10.692Z"/>
</svg>
