<svg viewBox="0 0 22 22" fill="none" xmlns="http://www.w3.org/2000/svg">
<g clip-path="url(#clip0_924_47)">
<path d="M5.31995 3.07818H4.53995C4.65795 2.20718 5.13995 2.16418 5.36095 2.14318C5.46776 2.13345 5.56708 2.08416 5.63942 2.00498C5.71175 1.92579 5.75189 1.82243 5.75195 1.71518V0.429182C5.7519 0.37072 5.73994 0.312882 5.71678 0.259201C5.69363 0.20552 5.65977 0.157125 5.61728 0.116972C5.57478 0.0768202 5.52455 0.0457544 5.46965 0.0256737C5.41474 0.00559296 5.35632 -0.00308096 5.29795 0.000182044C3.93895 0.077182 2.31995 0.763182 2.31995 3.59518V5.83218C2.32021 6.01165 2.39162 6.1837 2.51853 6.3106C2.64543 6.43751 2.81747 6.50892 2.99694 6.50918H5.31995C5.49942 6.50892 5.67146 6.43751 5.79837 6.3106C5.92527 6.1837 5.99668 6.01165 5.99694 5.83218V3.75518C5.99668 3.57571 5.92527 3.40367 5.79837 3.27676C5.67146 3.14986 5.49942 3.07845 5.31995 3.07818V3.07818ZM5.13795 5.65018H3.17795V3.59518C3.17795 1.61818 4.05695 1.06618 4.88995 0.910182V1.36218C4.31495 1.53718 3.65195 2.05418 3.65195 3.50718C3.65195 3.56365 3.66307 3.61957 3.68468 3.67174C3.70629 3.72391 3.73796 3.77131 3.77789 3.81124C3.81782 3.85117 3.86522 3.88284 3.91739 3.90445C3.96956 3.92606 4.02548 3.93718 4.08195 3.93718H5.13695L5.13795 5.65018Z"/>
<path d="M9.71498 3.07818H8.93298C9.05098 2.20718 9.53298 2.16418 9.75398 2.14318C9.86079 2.13345 9.96012 2.08416 10.0325 2.00498C10.1048 1.92579 10.1449 1.82243 10.145 1.71518V0.429182C10.1449 0.37072 10.133 0.312882 10.1098 0.259201C10.0867 0.20552 10.0528 0.157125 10.0103 0.116972C9.96782 0.0768202 9.91759 0.0457544 9.86269 0.0256737C9.80778 0.00559296 9.74936 -0.00308096 9.69099 0.000182044C8.33299 0.076182 6.71399 0.762182 6.71399 3.60018V5.83218C6.71425 6.01165 6.78566 6.1837 6.91257 6.3106C7.03947 6.43751 7.21152 6.50892 7.39099 6.50918H9.71599C9.89546 6.50892 10.0675 6.43751 10.1944 6.3106C10.3213 6.1837 10.3927 6.01165 10.393 5.83218V3.75518C10.3927 3.57554 10.3212 3.40334 10.1941 3.27641C10.0669 3.14948 9.89462 3.07818 9.71498 3.07818ZM9.53299 5.65018H7.57298V3.59518C7.57298 1.61818 8.45199 1.06618 9.28499 0.910182V1.36218C8.70999 1.53718 8.04698 2.05418 8.04698 3.50718C8.04698 3.56365 8.05812 3.61957 8.07973 3.67174C8.10134 3.72391 8.133 3.77131 8.17293 3.81124C8.21286 3.85117 8.26027 3.88284 8.31244 3.90445C8.36461 3.92606 8.42052 3.93718 8.47699 3.93718H9.53198L9.53299 5.65018Z"/>
<path d="M12.249 3.47108C12.1785 3.40063 12.0857 3.35685 11.9866 3.34723C11.8874 3.3376 11.7879 3.36272 11.7052 3.4183C11.6225 3.47388 11.5616 3.55647 11.5331 3.65194C11.5045 3.74742 11.51 3.84984 11.5486 3.94172C11.5872 4.03361 11.6565 4.10924 11.7446 4.15568C11.8328 4.20212 11.9344 4.21648 12.032 4.19633C12.1296 4.17618 12.2171 4.12276 12.2797 4.04519C12.3423 3.96763 12.376 3.87074 12.375 3.77109C12.3736 3.65851 12.3284 3.5509 12.249 3.47108V3.47108Z"/>
<path d="M14.363 3.34523H13.822C13.7639 3.34242 13.7057 3.35145 13.6512 3.37177C13.5966 3.39209 13.5468 3.42327 13.5046 3.46343C13.4625 3.50359 13.4289 3.55189 13.406 3.6054C13.3831 3.65891 13.3713 3.71652 13.3713 3.77473C13.3713 3.83294 13.3831 3.89055 13.406 3.94406C13.4289 3.99757 13.4625 4.04587 13.5046 4.08603C13.5468 4.12618 13.5966 4.15737 13.6512 4.17769C13.7057 4.198 13.7639 4.20703 13.822 4.20423H14.363C16.0397 4.20286 17.6575 4.82305 18.9036 5.94494C20.1497 7.06684 20.9358 8.6108 21.1099 10.2785C21.284 11.9462 20.8338 13.6192 19.8462 14.9743C18.8586 16.3293 17.4039 17.2703 15.763 17.6152C15.6665 17.6356 15.5799 17.6886 15.5179 17.7653C15.4558 17.8419 15.4219 17.9376 15.422 18.0362V20.5362L12.774 17.8812C12.6944 17.8016 12.5866 17.7563 12.474 17.7552H7.637C6.45786 17.7542 5.29936 17.4457 4.27588 16.8602C3.2524 16.2747 2.39932 15.4323 1.80086 14.4164C1.20239 13.4004 0.879247 12.2459 0.863313 11.0668C0.84738 9.88781 1.13921 8.72501 1.71 7.69323C1.73979 7.64379 1.75932 7.58888 1.76743 7.53173C1.77554 7.47459 1.77206 7.4164 1.75721 7.36063C1.74235 7.30486 1.71642 7.25266 1.68097 7.20712C1.64551 7.16158 1.60125 7.12365 1.55082 7.09559C1.50039 7.06752 1.44483 7.04988 1.38744 7.04374C1.33005 7.0376 1.27202 7.04308 1.21679 7.05984C1.16157 7.0766 1.11028 7.10432 1.06599 7.14132C1.0217 7.17833 0.985317 7.22386 0.959 7.27523C0.314143 8.43795 -0.0160748 9.74884 0.000996027 11.0783C0.0180668 12.4078 0.381835 13.7098 1.05633 14.8555C1.73083 16.0013 2.6927 16.9512 3.84685 17.6113C5.00099 18.2714 6.30743 18.6188 7.637 18.6192H12.292L15.546 21.8732C15.6059 21.9331 15.6821 21.974 15.7652 21.9907C15.8482 22.0074 15.9343 21.9992 16.0127 21.9672C16.0911 21.9351 16.1583 21.8806 16.2058 21.8106C16.2534 21.7405 16.2792 21.6579 16.28 21.5732V18.3812C18.0783 17.9144 19.6449 16.8082 20.6863 15.2695C21.7277 13.7309 22.1726 11.8654 21.9377 10.0224C21.7028 8.17941 20.8041 6.4852 19.41 5.25704C18.0159 4.02887 16.2219 3.35096 14.364 3.35023L14.363 3.34523Z"/>
<path d="M16.289 7.62599H5.71297C5.60265 7.63131 5.49861 7.67888 5.42241 7.75885C5.34621 7.83881 5.30371 7.94502 5.30371 8.05548C5.30371 8.16593 5.34621 8.27216 5.42241 8.35212C5.49861 8.43209 5.60265 8.47966 5.71297 8.48498H16.289C16.3471 8.48779 16.4052 8.47876 16.4598 8.45845C16.5143 8.43813 16.5642 8.40695 16.6063 8.36679C16.6485 8.32663 16.682 8.27833 16.705 8.22482C16.7279 8.17131 16.7397 8.11369 16.7397 8.05548C16.7397 7.99726 16.7279 7.93966 16.705 7.88615C16.682 7.83264 16.6485 7.78434 16.6063 7.74418C16.5642 7.70402 16.5143 7.67284 16.4598 7.65252C16.4052 7.63221 16.3471 7.62318 16.289 7.62599V7.62599Z"/>
<path d="M16.2889 9.91798H5.71294C5.65479 9.91517 5.59668 9.92421 5.54213 9.94453C5.48758 9.96485 5.43772 9.99603 5.39558 10.0362C5.35343 10.0763 5.31988 10.1246 5.29695 10.1782C5.27403 10.2317 5.26221 10.2893 5.26221 10.3475C5.26221 10.4057 5.27403 10.4633 5.29695 10.5168C5.31988 10.5703 5.35343 10.6186 5.39558 10.6588C5.43772 10.6989 5.48758 10.7301 5.54213 10.7504C5.59668 10.7708 5.65479 10.7798 5.71294 10.777H16.2889C16.3471 10.7798 16.4052 10.7708 16.4598 10.7504C16.5143 10.7301 16.5642 10.6989 16.6063 10.6588C16.6484 10.6186 16.682 10.5703 16.7049 10.5168C16.7278 10.4633 16.7397 10.4057 16.7397 10.3475C16.7397 10.2893 16.7278 10.2317 16.7049 10.1782C16.682 10.1246 16.6484 10.0763 16.6063 10.0362C16.5642 9.99603 16.5143 9.96485 16.4598 9.94453C16.4052 9.92421 16.3471 9.91517 16.2889 9.91798V9.91798Z"/>
<path d="M16.2889 12.21H5.71294C5.65479 12.2072 5.59668 12.2162 5.54213 12.2365C5.48758 12.2568 5.43772 12.288 5.39558 12.3282C5.35343 12.3684 5.31988 12.4167 5.29695 12.4702C5.27403 12.5237 5.26221 12.5813 5.26221 12.6395C5.26221 12.6977 5.27403 12.7553 5.29695 12.8088C5.31988 12.8623 5.35343 12.9106 5.39558 12.9508C5.43772 12.9909 5.48758 13.0221 5.54213 13.0424C5.59668 13.0627 5.65479 13.0718 5.71294 13.069H16.2889C16.3471 13.0718 16.4052 13.0627 16.4598 13.0424C16.5143 13.0221 16.5642 12.9909 16.6063 12.9508C16.6484 12.9106 16.682 12.8623 16.7049 12.8088C16.7278 12.7553 16.7397 12.6977 16.7397 12.6395C16.7397 12.5813 16.7278 12.5237 16.7049 12.4702C16.682 12.4167 16.6484 12.3684 16.6063 12.3282C16.5642 12.288 16.5143 12.2568 16.4598 12.2365C16.4052 12.2162 16.3471 12.2072 16.2889 12.21Z"/>
<path d="M16.288 14.502H10.65C10.5397 14.5073 10.4356 14.5549 10.3594 14.6348C10.2832 14.7148 10.2407 14.821 10.2407 14.9315C10.2407 15.0419 10.2832 15.1481 10.3594 15.2281C10.4356 15.3081 10.5397 15.3556 10.65 15.361H16.287C16.3973 15.3556 16.5014 15.3081 16.5776 15.2281C16.6538 15.1481 16.6963 15.0419 16.6963 14.9315C16.6963 14.821 16.6538 14.7148 16.5776 14.6348C16.5014 14.5549 16.3973 14.5073 16.287 14.502H16.288Z"/>
<path d="M8.23401 14.501H8.22702C8.11669 14.5063 8.01264 14.5539 7.93645 14.6339C7.86025 14.7138 7.81775 14.82 7.81775 14.9305C7.81775 15.0409 7.86025 15.1471 7.93645 15.2271C8.01264 15.3071 8.11669 15.3547 8.22702 15.36H8.23401C8.34433 15.3547 8.44838 15.3071 8.52458 15.2271C8.60078 15.1471 8.64328 15.0409 8.64328 14.9305C8.64328 14.82 8.60078 14.7138 8.52458 14.6339C8.44838 14.5539 8.34433 14.5063 8.23401 14.501V14.501Z"/>
</g>
<defs>
<clipPath id="clip0_924_47">
<rect width="22" height="22" fill="white"/>
</clipPath>
</defs>
</svg>
