<svg viewBox="0 0 27 8" fill="none" xmlns="http://www.w3.org/2000/svg">
<g clip-path="url(#clip0_924_43)">
<path d="M23.825 1.62613C23.412 2.77513 23.051 3.94312 22.571 5.06812C22.4787 5.24886 22.3472 5.40674 22.1862 5.53026C22.0251 5.65377 21.8385 5.73982 21.64 5.78213C21.379 5.80613 20.94 5.38212 20.8 5.08212C20.447 4.28212 20.23 3.42713 19.94 2.60013C19.8016 2.0431 19.4752 1.55092 19.0159 1.20675C18.5565 0.862575 17.9925 0.687512 17.419 0.711127C16.8453 0.688318 16.2809 0.861732 15.819 1.20277C15.357 1.54381 15.0252 2.03211 14.878 2.58713C14.573 3.46513 14.328 4.36312 13.969 5.22112C13.8847 5.36658 13.7715 5.49319 13.6363 5.59312C13.5011 5.69306 13.3468 5.76419 13.183 5.80212C12.966 5.84912 12.618 5.62313 12.421 5.43613C12.2804 5.2424 12.1851 5.01959 12.142 4.78412C11.8833 3.89174 11.5734 3.01496 11.214 2.15813C11.0439 1.80637 10.7951 1.49844 10.487 1.25812V1.25812L10.472 1.24812C10.4219 1.21297 10.3691 1.18187 10.314 1.15513C10.1979 1.08616 10.0717 1.03588 9.94003 1.00613C9.94003 1.00613 8.84001 1.27413 8.64001 2.18113C8.95578 2.19963 9.25485 2.32908 9.48447 2.54662C9.71409 2.76417 9.8595 3.05582 9.89502 3.37012C10.107 4.16112 10.408 4.93412 10.695 5.70712C10.8654 6.21 11.1894 6.64671 11.6213 6.95566C12.0531 7.2646 12.571 7.43021 13.102 7.42912C13.6476 7.44892 14.185 7.29213 14.6343 6.98207C15.0836 6.672 15.4209 6.22522 15.596 5.70813C15.915 4.83413 16.147 3.93012 16.524 3.07912C16.67 2.74812 17.104 2.31912 17.414 2.31512C17.724 2.31112 18.152 2.74712 18.295 3.07612C18.677 3.95212 18.913 4.88212 19.246 5.77612C19.4261 6.26233 19.7513 6.68141 20.1776 6.97656C20.6038 7.27171 21.1106 7.42866 21.629 7.42612C22.1627 7.44205 22.6884 7.29407 23.1354 7.0021C23.5824 6.71013 23.9292 6.2882 24.129 5.79313C24.353 5.22413 24.529 4.63912 24.735 4.06312C25.152 2.89312 25.575 1.72412 26.001 0.540122C24.302 0.310122 24.299 0.309128 23.825 1.62613Z" stroke="black"/>
<path d="M9.54599 0.8838C8.93722 0.663948 8.2669 0.688768 7.67606 0.953044C7.08521 1.21732 6.6199 1.70045 6.37799 2.3008C6.04199 3.1708 5.818 4.0778 5.435 4.9288C5.3457 5.12841 5.21718 5.30803 5.05707 5.45697C4.89696 5.60592 4.70853 5.72115 4.50299 5.7958C3.85299 5.9428 3.65698 5.3958 3.48898 4.9238C3.09598 3.8238 2.68 2.7238 2.271 1.6238C1.804 0.369797 1.80298 0.369796 0.302979 0.459796C0.200353 0.484663 0.100012 0.51812 0.00299072 0.559802C0.738991 2.4598 1.40299 4.3878 2.24799 6.2538C2.48562 6.67371 2.84788 7.00936 3.28467 7.21432C3.72145 7.41928 4.21115 7.48339 4.68597 7.3978C5.15951 7.39759 5.62271 7.25926 6.0188 6.99976C6.41489 6.74026 6.72669 6.37085 6.91599 5.9368C7.25999 5.0988 7.516 4.2368 7.823 3.3818C8.162 2.4458 8.37299 1.4368 9.54599 0.8838Z"/>
</g>
<defs>
<clipPath id="clip0_924_43">
<rect width="26.68" height="7.923" fill="white"/>
</clipPath>
</defs>
</svg>
