<svg viewBox="0 0 24 24" fill="none" xmlns="http://www.w3.org/2000/svg">
<path d="M22.63 9.58803C22.6798 8.14732 22.3647 6.71739 21.714 5.43103C21.2738 4.90445 20.6631 4.54854 19.988 4.42503C17.1876 4.17093 14.3755 4.06678 11.564 4.11303C8.76264 4.06402 5.96068 4.16416 3.16998 4.41303C2.6184 4.51356 2.10798 4.77242 1.70098 5.15803C0.787983 5.99503 0.687983 7.42403 0.587983 8.63203C0.441945 10.8036 0.441945 12.9825 0.587983 15.154C0.616462 15.8338 0.717026 16.5085 0.887982 17.167C1.00941 17.6755 1.25508 18.1459 1.60298 18.536C2.01297 18.9422 2.53559 19.2157 3.10298 19.321C5.27283 19.5888 7.45917 19.6998 9.64498 19.653C13.168 19.703 16.257 19.653 19.911 19.371C20.4922 19.272 21.0294 18.9982 21.451 18.586C21.7327 18.3043 21.9432 17.9594 22.065 17.58C22.4248 16.4755 22.6015 15.3196 22.588 14.158C22.63 13.594 22.63 10.192 22.63 9.58803ZM9.28798 14.761V8.53103L15.246 11.661C13.572 12.587 11.368 13.634 9.28798 14.761Z"/>
</svg>
